<svg xmlns="http://www.w3.org/2000/svg" width="1450" height="1750" viewBox="0 0 1450 1750" role="img"><rect width="1450" height="1750" fill="#fbfaf7"/><rect x="18" y="18" width="1414" height="1714" rx="8" fill="#ffffff" stroke="#d9d2c4"/><text x="48" y="54" font-size="26" font-family="Georgia, Times, serif" fill="#202124">Phase I: each retained Y has its own beta and R2</text><text x="48" y="80" font-size="14" font-family="Helvetica, Arial, sans-serif" fill="#5f646d">Each row is one retained outcome. Horizontal position is beta; point color and size summarize R2.</text><rect x="420" y="125" width="910" height="1530" fill="#fbfdff" stroke="#8c939b"/><line x1="485.0" y1="125" x2="485.0" y2="1655" stroke="#d7dce2" stroke-width="1.2"/><text x="485.0" y="1683" text-anchor="middle" font-size="12" font-family="Helvetica" fill="#5f646d">0.6</text><line x1="745.0" y1="125" x2="745.0" y2="1655" stroke="#d7dce2" stroke-width="1.2"/><text x="745.0" y="1683" text-anchor="middle" font-size="12" font-family="Helvetica" fill="#5f646d">0.8</text><line x1="1005.0" y1="125" x2="1005.0" y2="1655" stroke="#bb5a3c" stroke-width="1.2" stroke-dasharray="6 5"/><text x="1005.0" y="1683" text-anchor="middle" font-size="12" font-family="Helvetica" fill="#5f646d">1.0</text><line x1="1265.0" y1="125" x2="1265.0" y2="1655" stroke="#d7dce2" stroke-width="1.2"/><text x="1265.0" y="1683" text-anchor="middle" font-size="12" font-family="Helvetica" fill="#5f646d">1.2</text><text x="1013.0" y="143" font-size="12" font-family="Helvetica" fill="#bb5a3c">linear beta = 1</text><rect x="420" y="114.1" width="910" height="21.9" fill="#eef3f8" fill-opacity="0.38"/><text x="58" y="129.0" font-size="14" font-family="Helvetica" font-weight="700" fill="#202124">total</text><rect x="175" y="119.0" width="8" height="12" fill="#202124"/><text x="193" y="129.0" font-size="11" font-family="Helvetica" fill="#202124">all establishments</text><line x1="420" y1="125.0" x2="939.4" y2="125.0" stroke="#b9c2cc" stroke-width="1"/><circle cx="939.4" cy="125.0" r="8.1" fill="#4f8a46" fill-opacity="0.78" stroke="#ffffff" stroke-width="0.8"/><text x="952.5" y="128.5" font-size="9" font-family="Helvetica" fill="#5f646d">R2=0.85</text><text x="58" y="150.9" font-size="14" font-family="Helvetica" font-weight="700" fill="#2c6fbb">per_ocu</text><rect x="175" y="140.9" width="8" height="12" fill="#2c6fbb"/><text x="193" y="150.9" font-size="11" font-family="Helvetica" fill="#202124">0 a 5 personas</text><line x1="420" y1="146.9" x2="932.6" y2="146.9" stroke="#b9c2cc" stroke-width="1"/><circle cx="932.6" cy="146.9" r="8.0" fill="#4f8a46" fill-opacity="0.78" stroke="#ffffff" stroke-width="0.8"/><text x="945.6" y="150.4" font-size="9" font-family="Helvetica" fill="#5f646d">R2=0.84</text><rect x="420" y="157.8" width="910" height="21.9" fill="#eef3f8" fill-opacity="0.38"/><rect x="175" y="162.7" width="8" height="12" fill="#2c6fbb"/><text x="193" y="172.7" font-size="11" font-family="Helvetica" fill="#202124">11 a 30 personas</text><line x1="420" y1="168.7" x2="983.5" y2="168.7" stroke="#b9c2cc" stroke-width="1"/><circle cx="983.5" cy="168.7" r="7.5" fill="#1b8a7a" fill-opacity="0.78" stroke="#ffffff" stroke-width="0.8"/><text x="996.0" y="172.2" font-size="9" font-family="Helvetica" fill="#5f646d">R2=0.81</text><rect x="175" y="184.6" width="8" height="12" fill="#2c6fbb"/><text x="193" y="194.6" font-size="11" font-family="Helvetica" fill="#202124">6 a 10 personas</text><line x1="420" y1="190.6" x2="993.4" y2="190.6" stroke="#b9c2cc" stroke-width="1"/><circle cx="993.4" cy="190.6" r="7.4" fill="#1b8a7a" fill-opacity="0.78" stroke="#ffffff" stroke-width="0.8"/><text x="1005.8" y="194.1" font-size="9" font-family="Helvetica" fill="#5f646d">R2=0.81</text><rect x="420" y="201.5" width="910" height="21.9" fill="#eef3f8" fill-opacity="0.38"/><rect x="175" y="206.4" width="8" height="12" fill="#2c6fbb"/><text x="193" y="216.4" font-size="11" font-family="Helvetica" fill="#202124">31 a 50 personas</text><line x1="420" y1="212.4" x2="965.3" y2="212.4" stroke="#b9c2cc" stroke-width="1"/><circle cx="965.3" cy="212.4" r="6.6" fill="#1b8a7a" fill-opacity="0.78" stroke="#ffffff" stroke-width="0.8"/><text x="976.8" y="215.9" font-size="9" font-family="Helvetica" fill="#5f646d">R2=0.76</text><rect x="175" y="228.3" width="8" height="12" fill="#2c6fbb"/><text x="193" y="238.3" font-size="11" font-family="Helvetica" fill="#202124">51 a 100 personas</text><line x1="420" y1="234.3" x2="989.4" y2="234.3" stroke="#b9c2cc" stroke-width="1"/><circle cx="989.4" cy="234.3" r="6.0" fill="#c7932b" fill-opacity="0.78" stroke="#ffffff" stroke-width="0.8"/><text x="1000.4" y="237.8" font-size="9" font-family="Helvetica" fill="#5f646d">R2=0.72</text><rect x="420" y="245.2" width="910" height="21.9" fill="#eef3f8" fill-opacity="0.38"/><rect x="175" y="250.1" width="8" height="12" fill="#2c6fbb"/><text x="193" y="260.1" font-size="11" font-family="Helvetica" fill="#202124">101 a 250 personas</text><line x1="420" y1="256.1" x2="943.5" y2="256.1" stroke="#b9c2cc" stroke-width="1"/><circle cx="943.5" cy="256.1" r="5.4" fill="#c7932b" fill-opacity="0.78" stroke="#ffffff" stroke-width="0.8"/><text x="953.9" y="259.6" font-size="9" font-family="Helvetica" fill="#5f646d">R2=0.69</text><rect x="175" y="272.0" width="8" height="12" fill="#2c6fbb"/><text x="193" y="282.0" font-size="11" font-family="Helvetica" fill="#202124">251 y más personas</text><line x1="420" y1="278.0" x2="915.3" y2="278.0" stroke="#b9c2cc" stroke-width="1"/><circle cx="915.3" cy="278.0" r="4.3" fill="#bb5a3c" fill-opacity="0.78" stroke="#ffffff" stroke-width="0.8"/><text x="924.6" y="281.5" font-size="9" font-family="Helvetica" fill="#5f646d">R2=0.63</text><rect x="420" y="288.9" width="910" height="21.9" fill="#eef3f8" fill-opacity="0.38"/><text x="58" y="303.9" font-size="14" font-family="Helvetica" font-weight="700" fill="#1b8a7a">size_class</text><rect x="175" y="293.9" width="8" height="12" fill="#1b8a7a"/><text x="193" y="303.9" font-size="11" font-family="Helvetica" fill="#202124">micro</text><line x1="420" y1="299.9" x2="934.6" y2="299.9" stroke="#b9c2cc" stroke-width="1"/><circle cx="934.6" cy="299.9" r="8.0" fill="#4f8a46" fill-opacity="0.78" stroke="#ffffff" stroke-width="0.8"/><text x="947.6" y="303.4" font-size="9" font-family="Helvetica" fill="#5f646d">R2=0.84</text><rect x="175" y="315.7" width="8" height="12" fill="#1b8a7a"/><text x="193" y="325.7" font-size="11" font-family="Helvetica" fill="#202124">small</text><line x1="420" y1="321.7" x2="1010.2" y2="321.7" stroke="#b9c2cc" stroke-width="1"/><circle cx="1010.2" cy="321.7" r="7.6" fill="#1b8a7a" fill-opacity="0.78" stroke="#ffffff" stroke-width="0.8"/><text x="1022.8" y="325.2" font-size="9" font-family="Helvetica" fill="#5f646d">R2=0.82</text><rect x="420" y="332.6" width="910" height="21.9" fill="#eef3f8" fill-opacity="0.38"/><rect x="175" y="337.6" width="8" height="12" fill="#1b8a7a"/><text x="193" y="347.6" font-size="11" font-family="Helvetica" fill="#202124">medium</text><line x1="420" y1="343.6" x2="1079.8" y2="343.6" stroke="#b9c2cc" stroke-width="1"/><circle cx="1079.8" cy="343.6" r="6.2" fill="#c7932b" fill-opacity="0.78" stroke="#ffffff" stroke-width="0.8"/><text x="1091.0" y="347.1" font-size="9" font-family="Helvetica" fill="#5f646d">R2=0.74</text><rect x="175" y="359.4" width="8" height="12" fill="#1b8a7a"/><text x="193" y="369.4" font-size="11" font-family="Helvetica" fill="#202124">large</text><line x1="420" y1="365.4" x2="915.3" y2="365.4" stroke="#b9c2cc" stroke-width="1"/><circle cx="915.3" cy="365.4" r="4.3" fill="#bb5a3c" fill-opacity="0.78" stroke="#ffffff" stroke-width="0.8"/><text x="924.6" y="368.9" font-size="9" font-family="Helvetica" fill="#5f646d">R2=0.63</text><rect x="420" y="376.4" width="910" height="21.9" fill="#eef3f8" fill-opacity="0.38"/><text x="58" y="391.3" font-size="14" font-family="Helvetica" font-weight="700" fill="#bb5a3c">scian2</text><rect x="175" y="381.3" width="8" height="12" fill="#bb5a3c"/><text x="193" y="391.3" font-size="11" font-family="Helvetica" fill="#202124">SCIAN2 46</text><line x1="420" y1="387.3" x2="1007.2" y2="387.3" stroke="#b9c2cc" stroke-width="1"/><circle cx="1007.2" cy="387.3" r="8.5" fill="#4f8a46" fill-opacity="0.78" stroke="#ffffff" stroke-width="0.8"/><text x="1020.7" y="390.8" font-size="9" font-family="Helvetica" fill="#5f646d">R2=0.87</text><rect x="175" y="403.1" width="8" height="12" fill="#bb5a3c"/><text x="193" y="413.1" font-size="11" font-family="Helvetica" fill="#202124">SCIAN2 81</text><line x1="420" y1="409.1" x2="1064.1" y2="409.1" stroke="#b9c2cc" stroke-width="1"/><circle cx="1064.1" cy="409.1" r="8.0" fill="#4f8a46" fill-opacity="0.78" stroke="#ffffff" stroke-width="0.8"/><text x="1077.1" y="412.6" font-size="9" font-family="Helvetica" fill="#5f646d">R2=0.84</text><rect x="420" y="420.1" width="910" height="21.9" fill="#eef3f8" fill-opacity="0.38"/><rect x="175" y="425.0" width="8" height="12" fill="#bb5a3c"/><text x="193" y="435.0" font-size="11" font-family="Helvetica" fill="#202124">SCIAN2 72</text><line x1="420" y1="431.0" x2="1110.9" y2="431.0" stroke="#b9c2cc" stroke-width="1"/><circle cx="1110.9" cy="431.0" r="7.7" fill="#4f8a46" fill-opacity="0.78" stroke="#ffffff" stroke-width="0.8"/><text x="1123.6" y="434.5" font-size="9" font-family="Helvetica" fill="#5f646d">R2=0.82</text><rect x="175" y="446.9" width="8" height="12" fill="#bb5a3c"/><text x="193" y="456.9" font-size="11" font-family="Helvetica" fill="#202124">SCIAN2 61</text><line x1="420" y1="452.9" x2="723.3" y2="452.9" stroke="#b9c2cc" stroke-width="1"/><circle cx="723.3" cy="452.9" r="7.6" fill="#1b8a7a" fill-opacity="0.78" stroke="#ffffff" stroke-width="0.8"/><text x="735.9" y="456.4" font-size="9" font-family="Helvetica" fill="#5f646d">R2=0.82</text><rect x="420" y="463.8" width="910" height="21.9" fill="#eef3f8" fill-opacity="0.38"/><rect x="175" y="468.7" width="8" height="12" fill="#bb5a3c"/><text x="193" y="478.7" font-size="11" font-family="Helvetica" fill="#202124">SCIAN2 62</text><line x1="420" y1="474.7" x2="955.4" y2="474.7" stroke="#b9c2cc" stroke-width="1"/><circle cx="955.4" cy="474.7" r="7.5" fill="#1b8a7a" fill-opacity="0.78" stroke="#ffffff" stroke-width="0.8"/><text x="967.9" y="478.2" font-size="9" font-family="Helvetica" fill="#5f646d">R2=0.81</text><rect x="175" y="490.6" width="8" height="12" fill="#bb5a3c"/><text x="193" y="500.6" font-size="11" font-family="Helvetica" fill="#202124">SCIAN2 56</text><line x1="420" y1="496.6" x2="927.4" y2="496.6" stroke="#b9c2cc" stroke-width="1"/><circle cx="927.4" cy="496.6" r="7.2" fill="#1b8a7a" fill-opacity="0.78" stroke="#ffffff" stroke-width="0.8"/><text x="939.6" y="500.1" font-size="9" font-family="Helvetica" fill="#5f646d">R2=0.80</text><rect x="420" y="507.5" width="910" height="21.9" fill="#eef3f8" fill-opacity="0.38"/><rect x="175" y="512.4" width="8" height="12" fill="#bb5a3c"/><text x="193" y="522.4" font-size="11" font-family="Helvetica" fill="#202124">SCIAN2 43</text><line x1="420" y1="518.4" x2="1101.3" y2="518.4" stroke="#b9c2cc" stroke-width="1"/><circle cx="1101.3" cy="518.4" r="7.2" fill="#1b8a7a" fill-opacity="0.78" stroke="#ffffff" stroke-width="0.8"/><text x="1113.4" y="521.9" font-size="9" font-family="Helvetica" fill="#5f646d">R2=0.79</text><rect x="175" y="534.3" width="8" height="12" fill="#bb5a3c"/><text x="193" y="544.3" font-size="11" font-family="Helvetica" fill="#202124">SCIAN2 52</text><line x1="420" y1="540.3" x2="1087.5" y2="540.3" stroke="#b9c2cc" stroke-width="1"/><circle cx="1087.5" cy="540.3" r="6.6" fill="#1b8a7a" fill-opacity="0.78" stroke="#ffffff" stroke-width="0.8"/><text x="1099.1" y="543.8" font-size="9" font-family="Helvetica" fill="#5f646d">R2=0.76</text><rect x="420" y="551.2" width="910" height="21.9" fill="#eef3f8" fill-opacity="0.38"/><rect x="175" y="556.1" width="8" height="12" fill="#bb5a3c"/><text x="193" y="566.1" font-size="11" font-family="Helvetica" fill="#202124">SCIAN2 54</text><line x1="420" y1="562.1" x2="1231.1" y2="562.1" stroke="#b9c2cc" stroke-width="1"/><circle cx="1231.1" cy="562.1" r="6.5" fill="#1b8a7a" fill-opacity="0.78" stroke="#ffffff" stroke-width="0.8"/><text x="1242.5" y="565.6" font-size="9" font-family="Helvetica" fill="#5f646d">R2=0.75</text><rect x="175" y="578.0" width="8" height="12" fill="#bb5a3c"/><text x="193" y="588.0" font-size="11" font-family="Helvetica" fill="#202124">SCIAN2 33</text><line x1="420" y1="584.0" x2="899.6" y2="584.0" stroke="#b9c2cc" stroke-width="1"/><circle cx="899.6" cy="584.0" r="6.3" fill="#c7932b" fill-opacity="0.78" stroke="#ffffff" stroke-width="0.8"/><text x="910.9" y="587.5" font-size="9" font-family="Helvetica" fill="#5f646d">R2=0.74</text><rect x="420" y="594.9" width="910" height="21.9" fill="#eef3f8" fill-opacity="0.38"/><rect x="175" y="599.9" width="8" height="12" fill="#bb5a3c"/><text x="193" y="609.9" font-size="11" font-family="Helvetica" fill="#202124">SCIAN2 71</text><line x1="420" y1="605.9" x2="855.8" y2="605.9" stroke="#b9c2cc" stroke-width="1"/><circle cx="855.8" cy="605.9" r="6.1" fill="#c7932b" fill-opacity="0.78" stroke="#ffffff" stroke-width="0.8"/><text x="866.9" y="609.4" font-size="9" font-family="Helvetica" fill="#5f646d">R2=0.73</text><rect x="175" y="621.7" width="8" height="12" fill="#bb5a3c"/><text x="193" y="631.7" font-size="11" font-family="Helvetica" fill="#202124">SCIAN2 53</text><line x1="420" y1="627.7" x2="1019.9" y2="627.7" stroke="#b9c2cc" stroke-width="1"/><circle cx="1019.9" cy="627.7" r="6.1" fill="#c7932b" fill-opacity="0.78" stroke="#ffffff" stroke-width="0.8"/><text x="1031.0" y="631.2" font-size="9" font-family="Helvetica" fill="#5f646d">R2=0.73</text><rect x="420" y="638.6" width="910" height="21.9" fill="#eef3f8" fill-opacity="0.38"/><rect x="175" y="643.6" width="8" height="12" fill="#bb5a3c"/><text x="193" y="653.6" font-size="11" font-family="Helvetica" fill="#202124">SCIAN2 51</text><line x1="420" y1="649.6" x2="574.4" y2="649.6" stroke="#b9c2cc" stroke-width="1"/><circle cx="574.4" cy="649.6" r="5.6" fill="#c7932b" fill-opacity="0.78" stroke="#ffffff" stroke-width="0.8"/><text x="585.1" y="653.1" font-size="9" font-family="Helvetica" fill="#5f646d">R2=0.70</text><rect x="175" y="665.4" width="8" height="12" fill="#bb5a3c"/><text x="193" y="675.4" font-size="11" font-family="Helvetica" fill="#202124">SCIAN2 93</text><line x1="420" y1="671.4" x2="630.3" y2="671.4" stroke="#b9c2cc" stroke-width="1"/><circle cx="630.3" cy="671.4" r="5.6" fill="#c7932b" fill-opacity="0.78" stroke="#ffffff" stroke-width="0.8"/><text x="640.9" y="674.9" font-size="9" font-family="Helvetica" fill="#5f646d">R2=0.70</text><rect x="420" y="682.4" width="910" height="21.9" fill="#eef3f8" fill-opacity="0.38"/><rect x="175" y="687.3" width="8" height="12" fill="#bb5a3c"/><text x="193" y="697.3" font-size="11" font-family="Helvetica" fill="#202124">SCIAN2 23</text><line x1="420" y1="693.3" x2="1090.2" y2="693.3" stroke="#b9c2cc" stroke-width="1"/><circle cx="1090.2" cy="693.3" r="5.1" fill="#bb5a3c" fill-opacity="0.78" stroke="#ffffff" stroke-width="0.8"/><text x="1100.4" y="696.8" font-size="9" font-family="Helvetica" fill="#5f646d">R2=0.67</text><rect x="175" y="709.1" width="8" height="12" fill="#bb5a3c"/><text x="193" y="719.1" font-size="11" font-family="Helvetica" fill="#202124">SCIAN2 48</text><line x1="420" y1="715.1" x2="868.2" y2="715.1" stroke="#b9c2cc" stroke-width="1"/><circle cx="868.2" cy="715.1" r="5.1" fill="#bb5a3c" fill-opacity="0.78" stroke="#ffffff" stroke-width="0.8"/><text x="878.3" y="718.6" font-size="9" font-family="Helvetica" fill="#5f646d">R2=0.67</text><rect x="420" y="726.1" width="910" height="21.9" fill="#eef3f8" fill-opacity="0.38"/><rect x="175" y="731.0" width="8" height="12" fill="#bb5a3c"/><text x="193" y="741.0" font-size="11" font-family="Helvetica" fill="#202124">SCIAN2 32</text><line x1="420" y1="737.0" x2="907.3" y2="737.0" stroke="#b9c2cc" stroke-width="1"/><circle cx="907.3" cy="737.0" r="4.6" fill="#bb5a3c" fill-opacity="0.78" stroke="#ffffff" stroke-width="0.8"/><text x="916.8" y="740.5" font-size="9" font-family="Helvetica" fill="#5f646d">R2=0.64</text><rect x="175" y="752.9" width="8" height="12" fill="#bb5a3c"/><text x="193" y="762.9" font-size="11" font-family="Helvetica" fill="#202124">SCIAN2 49</text><line x1="420" y1="758.9" x2="602.1" y2="758.9" stroke="#b9c2cc" stroke-width="1"/><circle cx="602.1" cy="758.9" r="3.6" fill="#bb5a3c" fill-opacity="0.78" stroke="#ffffff" stroke-width="0.8"/><text x="610.6" y="762.4" font-size="9" font-family="Helvetica" fill="#5f646d">R2=0.58</text><rect x="420" y="769.8" width="910" height="21.9" fill="#eef3f8" fill-opacity="0.38"/><rect x="175" y="774.7" width="8" height="12" fill="#bb5a3c"/><text x="193" y="784.7" font-size="11" font-family="Helvetica" fill="#202124">SCIAN2 22</text><line x1="420" y1="780.7" x2="420.0" y2="780.7" stroke="#b9c2cc" stroke-width="1"/><circle cx="420.0" cy="780.7" r="3.3" fill="#bb5a3c" fill-opacity="0.78" stroke="#ffffff" stroke-width="0.8"/><text x="428.3" y="784.2" font-size="9" font-family="Helvetica" fill="#5f646d">R2=0.57</text><rect x="175" y="796.6" width="8" height="12" fill="#bb5a3c"/><text x="193" y="806.6" font-size="11" font-family="Helvetica" fill="#202124">SCIAN2 31</text><line x1="420" y1="802.6" x2="713.3" y2="802.6" stroke="#b9c2cc" stroke-width="1"/><circle cx="713.3" cy="802.6" r="3.1" fill="#bb5a3c" fill-opacity="0.78" stroke="#ffffff" stroke-width="0.8"/><text x="721.4" y="806.1" font-size="9" font-family="Helvetica" fill="#5f646d">R2=0.56</text><rect x="420" y="813.5" width="910" height="21.9" fill="#eef3f8" fill-opacity="0.38"/><text x="58" y="828.4" font-size="14" font-family="Helvetica" font-weight="700" fill="#c7932b">scian3</text><rect x="175" y="818.4" width="8" height="12" fill="#c7932b"/><text x="193" y="828.4" font-size="11" font-family="Helvetica" fill="#202124">SCIAN3 461</text><line x1="420" y1="824.4" x2="878.0" y2="824.4" stroke="#b9c2cc" stroke-width="1"/><circle cx="878.0" cy="824.4" r="8.1" fill="#4f8a46" fill-opacity="0.78" stroke="#ffffff" stroke-width="0.8"/><text x="891.1" y="827.9" font-size="9" font-family="Helvetica" fill="#5f646d">R2=0.85</text><rect x="175" y="840.3" width="8" height="12" fill="#c7932b"/><text x="193" y="850.3" font-size="11" font-family="Helvetica" fill="#202124">SCIAN3 464</text><line x1="420" y1="846.3" x2="1014.7" y2="846.3" stroke="#b9c2cc" stroke-width="1"/><circle cx="1014.7" cy="846.3" r="7.8" fill="#4f8a46" fill-opacity="0.78" stroke="#ffffff" stroke-width="0.8"/><text x="1027.5" y="849.8" font-size="9" font-family="Helvetica" fill="#5f646d">R2=0.83</text><rect x="420" y="857.2" width="910" height="21.9" fill="#eef3f8" fill-opacity="0.38"/><rect x="175" y="862.1" width="8" height="12" fill="#c7932b"/><text x="193" y="872.1" font-size="11" font-family="Helvetica" fill="#202124">SCIAN3 722</text><line x1="420" y1="868.1" x2="1117.2" y2="868.1" stroke="#b9c2cc" stroke-width="1"/><circle cx="1117.2" cy="868.1" r="7.7" fill="#4f8a46" fill-opacity="0.78" stroke="#ffffff" stroke-width="0.8"/><text x="1129.9" y="871.6" font-size="9" font-family="Helvetica" fill="#5f646d">R2=0.82</text><rect x="175" y="884.0" width="8" height="12" fill="#c7932b"/><text x="193" y="894.0" font-size="11" font-family="Helvetica" fill="#202124">SCIAN3 812</text><line x1="420" y1="890.0" x2="1115.2" y2="890.0" stroke="#b9c2cc" stroke-width="1"/><circle cx="1115.2" cy="890.0" r="7.7" fill="#4f8a46" fill-opacity="0.78" stroke="#ffffff" stroke-width="0.8"/><text x="1127.9" y="893.5" font-size="9" font-family="Helvetica" fill="#5f646d">R2=0.82</text><rect x="420" y="900.9" width="910" height="21.9" fill="#eef3f8" fill-opacity="0.38"/><rect x="175" y="905.9" width="8" height="12" fill="#c7932b"/><text x="193" y="915.9" font-size="11" font-family="Helvetica" fill="#202124">SCIAN3 465</text><line x1="420" y1="911.9" x2="1119.6" y2="911.9" stroke="#b9c2cc" stroke-width="1"/><circle cx="1119.6" cy="911.9" r="7.6" fill="#1b8a7a" fill-opacity="0.78" stroke="#ffffff" stroke-width="0.8"/><text x="1132.3" y="915.4" font-size="9" font-family="Helvetica" fill="#5f646d">R2=0.82</text><rect x="175" y="927.7" width="8" height="12" fill="#c7932b"/><text x="193" y="937.7" font-size="11" font-family="Helvetica" fill="#202124">SCIAN3 611</text><line x1="420" y1="933.7" x2="723.3" y2="933.7" stroke="#b9c2cc" stroke-width="1"/><circle cx="723.3" cy="933.7" r="7.6" fill="#1b8a7a" fill-opacity="0.78" stroke="#ffffff" stroke-width="0.8"/><text x="735.9" y="937.2" font-size="9" font-family="Helvetica" fill="#5f646d">R2=0.82</text><rect x="420" y="944.6" width="910" height="21.9" fill="#eef3f8" fill-opacity="0.38"/><rect x="175" y="949.6" width="8" height="12" fill="#c7932b"/><text x="193" y="959.6" font-size="11" font-family="Helvetica" fill="#202124">SCIAN3 467</text><line x1="420" y1="955.6" x2="1051.5" y2="955.6" stroke="#b9c2cc" stroke-width="1"/><circle cx="1051.5" cy="955.6" r="7.4" fill="#1b8a7a" fill-opacity="0.78" stroke="#ffffff" stroke-width="0.8"/><text x="1063.9" y="959.1" font-size="9" font-family="Helvetica" fill="#5f646d">R2=0.81</text><rect x="175" y="971.4" width="8" height="12" fill="#c7932b"/><text x="193" y="981.4" font-size="11" font-family="Helvetica" fill="#202124">SCIAN3 621</text><line x1="420" y1="977.4" x2="1054.9" y2="977.4" stroke="#b9c2cc" stroke-width="1"/><circle cx="1054.9" cy="977.4" r="7.3" fill="#1b8a7a" fill-opacity="0.78" stroke="#ffffff" stroke-width="0.8"/><text x="1067.2" y="980.9" font-size="9" font-family="Helvetica" fill="#5f646d">R2=0.80</text><rect x="420" y="988.4" width="910" height="21.9" fill="#eef3f8" fill-opacity="0.38"/><rect x="175" y="993.3" width="8" height="12" fill="#c7932b"/><text x="193" y="1003.3" font-size="11" font-family="Helvetica" fill="#202124">SCIAN3 561</text><line x1="420" y1="999.3" x2="922.5" y2="999.3" stroke="#b9c2cc" stroke-width="1"/><circle cx="922.5" cy="999.3" r="7.2" fill="#1b8a7a" fill-opacity="0.78" stroke="#ffffff" stroke-width="0.8"/><text x="934.7" y="1002.8" font-size="9" font-family="Helvetica" fill="#5f646d">R2=0.79</text><rect x="175" y="1015.1" width="8" height="12" fill="#c7932b"/><text x="193" y="1025.1" font-size="11" font-family="Helvetica" fill="#202124">SCIAN3 463</text><line x1="420" y1="1021.1" x2="1137.9" y2="1021.1" stroke="#b9c2cc" stroke-width="1"/><circle cx="1137.9" cy="1021.1" r="7.2" fill="#1b8a7a" fill-opacity="0.78" stroke="#ffffff" stroke-width="0.8"/><text x="1150.1" y="1024.6" font-size="9" font-family="Helvetica" fill="#5f646d">R2=0.79</text><rect x="420" y="1032.1" width="910" height="21.9" fill="#eef3f8" fill-opacity="0.38"/><rect x="175" y="1037.0" width="8" height="12" fill="#c7932b"/><text x="193" y="1047.0" font-size="11" font-family="Helvetica" fill="#202124">SCIAN3 811</text><line x1="420" y1="1043.0" x2="1231.0" y2="1043.0" stroke="#b9c2cc" stroke-width="1"/><circle cx="1231.0" cy="1043.0" r="7.2" fill="#1b8a7a" fill-opacity="0.78" stroke="#ffffff" stroke-width="0.8"/><text x="1243.2" y="1046.5" font-size="9" font-family="Helvetica" fill="#5f646d">R2=0.79</text><rect x="175" y="1058.9" width="8" height="12" fill="#c7932b"/><text x="193" y="1068.9" font-size="11" font-family="Helvetica" fill="#202124">SCIAN3 468</text><line x1="420" y1="1064.9" x2="1058.9" y2="1064.9" stroke="#b9c2cc" stroke-width="1"/><circle cx="1058.9" cy="1064.9" r="7.1" fill="#1b8a7a" fill-opacity="0.78" stroke="#ffffff" stroke-width="0.8"/><text x="1071.1" y="1068.4" font-size="9" font-family="Helvetica" fill="#5f646d">R2=0.79</text><rect x="420" y="1075.8" width="910" height="21.9" fill="#eef3f8" fill-opacity="0.38"/><rect x="175" y="1080.7" width="8" height="12" fill="#c7932b"/><text x="193" y="1090.7" font-size="11" font-family="Helvetica" fill="#202124">SCIAN3 466</text><line x1="420" y1="1086.7" x2="1164.6" y2="1086.7" stroke="#b9c2cc" stroke-width="1"/><circle cx="1164.6" cy="1086.7" r="7.0" fill="#1b8a7a" fill-opacity="0.78" stroke="#ffffff" stroke-width="0.8"/><text x="1176.6" y="1090.2" font-size="9" font-family="Helvetica" fill="#5f646d">R2=0.79</text><rect x="175" y="1102.6" width="8" height="12" fill="#c7932b"/><text x="193" y="1112.6" font-size="11" font-family="Helvetica" fill="#202124">SCIAN3 434</text><line x1="420" y1="1108.6" x2="996.7" y2="1108.6" stroke="#b9c2cc" stroke-width="1"/><circle cx="996.7" cy="1108.6" r="6.9" fill="#1b8a7a" fill-opacity="0.78" stroke="#ffffff" stroke-width="0.8"/><text x="1008.6" y="1112.1" font-size="9" font-family="Helvetica" fill="#5f646d">R2=0.77</text><rect x="420" y="1119.5" width="910" height="21.9" fill="#eef3f8" fill-opacity="0.38"/><rect x="175" y="1124.4" width="8" height="12" fill="#c7932b"/><text x="193" y="1134.4" font-size="11" font-family="Helvetica" fill="#202124">SCIAN3 332</text><line x1="420" y1="1130.4" x2="849.3" y2="1130.4" stroke="#b9c2cc" stroke-width="1"/><circle cx="849.3" cy="1130.4" r="6.6" fill="#1b8a7a" fill-opacity="0.78" stroke="#ffffff" stroke-width="0.8"/><text x="860.9" y="1133.9" font-size="9" font-family="Helvetica" fill="#5f646d">R2=0.76</text><rect x="175" y="1146.3" width="8" height="12" fill="#c7932b"/><text x="193" y="1156.3" font-size="11" font-family="Helvetica" fill="#202124">SCIAN3 522</text><line x1="420" y1="1152.3" x2="1060.7" y2="1152.3" stroke="#b9c2cc" stroke-width="1"/><circle cx="1060.7" cy="1152.3" r="6.6" fill="#1b8a7a" fill-opacity="0.78" stroke="#ffffff" stroke-width="0.8"/><text x="1072.3" y="1155.8" font-size="9" font-family="Helvetica" fill="#5f646d">R2=0.76</text><rect x="420" y="1163.2" width="910" height="21.9" fill="#eef3f8" fill-opacity="0.38"/><rect x="175" y="1168.1" width="8" height="12" fill="#c7932b"/><text x="193" y="1178.1" font-size="11" font-family="Helvetica" fill="#202124">SCIAN3 541</text><line x1="420" y1="1174.1" x2="1231.1" y2="1174.1" stroke="#b9c2cc" stroke-width="1"/><circle cx="1231.1" cy="1174.1" r="6.5" fill="#1b8a7a" fill-opacity="0.78" stroke="#ffffff" stroke-width="0.8"/><text x="1242.5" y="1177.6" font-size="9" font-family="Helvetica" fill="#5f646d">R2=0.75</text><rect x="175" y="1190.0" width="8" height="12" fill="#c7932b"/><text x="193" y="1200.0" font-size="11" font-family="Helvetica" fill="#202124">SCIAN3 813</text><line x1="420" y1="1196.0" x2="699.7" y2="1196.0" stroke="#b9c2cc" stroke-width="1"/><circle cx="699.7" cy="1196.0" r="6.4" fill="#c7932b" fill-opacity="0.78" stroke="#ffffff" stroke-width="0.8"/><text x="711.0" y="1199.5" font-size="9" font-family="Helvetica" fill="#5f646d">R2=0.75</text><rect x="420" y="1206.9" width="910" height="21.9" fill="#eef3f8" fill-opacity="0.38"/><rect x="175" y="1211.9" width="8" height="12" fill="#c7932b"/><text x="193" y="1221.9" font-size="11" font-family="Helvetica" fill="#202124">SCIAN3 713</text><line x1="420" y1="1217.9" x2="934.6" y2="1217.9" stroke="#b9c2cc" stroke-width="1"/><circle cx="934.6" cy="1217.9" r="6.3" fill="#c7932b" fill-opacity="0.78" stroke="#ffffff" stroke-width="0.8"/><text x="945.9" y="1221.4" font-size="9" font-family="Helvetica" fill="#5f646d">R2=0.74</text><rect x="175" y="1233.7" width="8" height="12" fill="#c7932b"/><text x="193" y="1243.7" font-size="11" font-family="Helvetica" fill="#202124">SCIAN3 323</text><line x1="420" y1="1239.7" x2="1043.1" y2="1239.7" stroke="#b9c2cc" stroke-width="1"/><circle cx="1043.1" cy="1239.7" r="5.9" fill="#c7932b" fill-opacity="0.78" stroke="#ffffff" stroke-width="0.8"/><text x="1054.0" y="1243.2" font-size="9" font-family="Helvetica" fill="#5f646d">R2=0.72</text><rect x="420" y="1250.6" width="910" height="21.9" fill="#eef3f8" fill-opacity="0.38"/><rect x="175" y="1255.6" width="8" height="12" fill="#c7932b"/><text x="193" y="1265.6" font-size="11" font-family="Helvetica" fill="#202124">SCIAN3 462</text><line x1="420" y1="1261.6" x2="959.5" y2="1261.6" stroke="#b9c2cc" stroke-width="1"/><circle cx="959.5" cy="1261.6" r="5.8" fill="#c7932b" fill-opacity="0.78" stroke="#ffffff" stroke-width="0.8"/><text x="970.2" y="1265.1" font-size="9" font-family="Helvetica" fill="#5f646d">R2=0.71</text><rect x="175" y="1277.4" width="8" height="12" fill="#c7932b"/><text x="193" y="1287.4" font-size="11" font-family="Helvetica" fill="#202124">SCIAN3 931</text><line x1="420" y1="1283.4" x2="630.2" y2="1283.4" stroke="#b9c2cc" stroke-width="1"/><circle cx="630.2" cy="1283.4" r="5.6" fill="#c7932b" fill-opacity="0.78" stroke="#ffffff" stroke-width="0.8"/><text x="640.8" y="1286.9" font-size="9" font-family="Helvetica" fill="#5f646d">R2=0.70</text><rect x="420" y="1294.4" width="910" height="21.9" fill="#eef3f8" fill-opacity="0.38"/><rect x="175" y="1299.3" width="8" height="12" fill="#c7932b"/><text x="193" y="1309.3" font-size="11" font-family="Helvetica" fill="#202124">SCIAN3 624</text><line x1="420" y1="1305.3" x2="657.3" y2="1305.3" stroke="#b9c2cc" stroke-width="1"/><circle cx="657.3" cy="1305.3" r="5.5" fill="#c7932b" fill-opacity="0.78" stroke="#ffffff" stroke-width="0.8"/><text x="667.8" y="1308.8" font-size="9" font-family="Helvetica" fill="#5f646d">R2=0.70</text><rect x="175" y="1321.1" width="8" height="12" fill="#c7932b"/><text x="193" y="1331.1" font-size="11" font-family="Helvetica" fill="#202124">SCIAN3 531</text><line x1="420" y1="1327.1" x2="1021.4" y2="1327.1" stroke="#b9c2cc" stroke-width="1"/><circle cx="1021.4" cy="1327.1" r="5.5" fill="#c7932b" fill-opacity="0.78" stroke="#ffffff" stroke-width="0.8"/><text x="1031.9" y="1330.6" font-size="9" font-family="Helvetica" fill="#5f646d">R2=0.70</text><rect x="420" y="1338.1" width="910" height="21.9" fill="#eef3f8" fill-opacity="0.38"/><rect x="175" y="1343.0" width="8" height="12" fill="#c7932b"/><text x="193" y="1353.0" font-size="11" font-family="Helvetica" fill="#202124">SCIAN3 311</text><line x1="420" y1="1349.0" x2="789.4" y2="1349.0" stroke="#b9c2cc" stroke-width="1"/><circle cx="789.4" cy="1349.0" r="5.5" fill="#c7932b" fill-opacity="0.78" stroke="#ffffff" stroke-width="0.8"/><text x="799.9" y="1352.5" font-size="9" font-family="Helvetica" fill="#5f646d">R2=0.69</text><rect x="175" y="1364.9" width="8" height="12" fill="#c7932b"/><text x="193" y="1374.9" font-size="11" font-family="Helvetica" fill="#202124">SCIAN3 435</text><line x1="420" y1="1370.9" x2="1155.8" y2="1370.9" stroke="#b9c2cc" stroke-width="1"/><circle cx="1155.8" cy="1370.9" r="5.4" fill="#c7932b" fill-opacity="0.78" stroke="#ffffff" stroke-width="0.8"/><text x="1166.2" y="1374.4" font-size="9" font-family="Helvetica" fill="#5f646d">R2=0.69</text><rect x="420" y="1381.8" width="910" height="21.9" fill="#eef3f8" fill-opacity="0.38"/><rect x="175" y="1386.7" width="8" height="12" fill="#c7932b"/><text x="193" y="1396.7" font-size="11" font-family="Helvetica" fill="#202124">SCIAN3 532</text><line x1="420" y1="1392.7" x2="792.8" y2="1392.7" stroke="#b9c2cc" stroke-width="1"/><circle cx="792.8" cy="1392.7" r="5.2" fill="#c7932b" fill-opacity="0.78" stroke="#ffffff" stroke-width="0.8"/><text x="803.0" y="1396.2" font-size="9" font-family="Helvetica" fill="#5f646d">R2=0.68</text><rect x="175" y="1408.6" width="8" height="12" fill="#c7932b"/><text x="193" y="1418.6" font-size="11" font-family="Helvetica" fill="#202124">SCIAN3 517</text><line x1="420" y1="1414.6" x2="546.2" y2="1414.6" stroke="#b9c2cc" stroke-width="1"/><circle cx="546.2" cy="1414.6" r="5.1" fill="#bb5a3c" fill-opacity="0.78" stroke="#ffffff" stroke-width="0.8"/><text x="556.3" y="1418.1" font-size="9" font-family="Helvetica" fill="#5f646d">R2=0.67</text><rect x="420" y="1425.5" width="910" height="21.9" fill="#eef3f8" fill-opacity="0.38"/><rect x="175" y="1430.4" width="8" height="12" fill="#c7932b"/><text x="193" y="1440.4" font-size="11" font-family="Helvetica" fill="#202124">SCIAN3 431</text><line x1="420" y1="1436.4" x2="818.5" y2="1436.4" stroke="#b9c2cc" stroke-width="1"/><circle cx="818.5" cy="1436.4" r="4.7" fill="#bb5a3c" fill-opacity="0.78" stroke="#ffffff" stroke-width="0.8"/><text x="828.1" y="1439.9" font-size="9" font-family="Helvetica" fill="#5f646d">R2=0.65</text><rect x="175" y="1452.3" width="8" height="12" fill="#c7932b"/><text x="193" y="1462.3" font-size="11" font-family="Helvetica" fill="#202124">SCIAN3 485</text><line x1="420" y1="1458.3" x2="582.2" y2="1458.3" stroke="#b9c2cc" stroke-width="1"/><circle cx="582.2" cy="1458.3" r="4.0" fill="#bb5a3c" fill-opacity="0.78" stroke="#ffffff" stroke-width="0.8"/><text x="591.1" y="1461.8" font-size="9" font-family="Helvetica" fill="#5f646d">R2=0.61</text><rect x="420" y="1469.2" width="910" height="21.9" fill="#eef3f8" fill-opacity="0.38"/><rect x="175" y="1474.1" width="8" height="12" fill="#c7932b"/><text x="193" y="1484.1" font-size="11" font-family="Helvetica" fill="#202124">SCIAN3 312</text><line x1="420" y1="1480.1" x2="637.5" y2="1480.1" stroke="#b9c2cc" stroke-width="1"/><circle cx="637.5" cy="1480.1" r="3.9" fill="#bb5a3c" fill-opacity="0.78" stroke="#ffffff" stroke-width="0.8"/><text x="646.4" y="1483.6" font-size="9" font-family="Helvetica" fill="#5f646d">R2=0.60</text><rect x="175" y="1496.0" width="8" height="12" fill="#c7932b"/><text x="193" y="1506.0" font-size="11" font-family="Helvetica" fill="#202124">SCIAN3 622</text><line x1="420" y1="1502.0" x2="420.0" y2="1502.0" stroke="#b9c2cc" stroke-width="1"/><circle cx="420.0" cy="1502.0" r="3.6" fill="#bb5a3c" fill-opacity="0.78" stroke="#ffffff" stroke-width="0.8"/><text x="428.6" y="1505.5" font-size="9" font-family="Helvetica" fill="#5f646d">R2=0.58</text><rect x="420" y="1512.9" width="910" height="21.9" fill="#eef3f8" fill-opacity="0.38"/><rect x="175" y="1517.9" width="8" height="12" fill="#c7932b"/><text x="193" y="1527.9" font-size="11" font-family="Helvetica" fill="#202124">SCIAN3 321</text><line x1="420" y1="1523.9" x2="662.0" y2="1523.9" stroke="#b9c2cc" stroke-width="1"/><circle cx="662.0" cy="1523.9" r="3.6" fill="#bb5a3c" fill-opacity="0.78" stroke="#ffffff" stroke-width="0.8"/><text x="670.6" y="1527.4" font-size="9" font-family="Helvetica" fill="#5f646d">R2=0.58</text><rect x="175" y="1539.7" width="8" height="12" fill="#c7932b"/><text x="193" y="1549.7" font-size="11" font-family="Helvetica" fill="#202124">SCIAN3 337</text><line x1="420" y1="1545.7" x2="653.4" y2="1545.7" stroke="#b9c2cc" stroke-width="1"/><circle cx="653.4" cy="1545.7" r="3.5" fill="#bb5a3c" fill-opacity="0.78" stroke="#ffffff" stroke-width="0.8"/><text x="662.0" y="1549.2" font-size="9" font-family="Helvetica" fill="#5f646d">R2=0.58</text><rect x="420" y="1556.6" width="910" height="21.9" fill="#eef3f8" fill-opacity="0.38"/><rect x="175" y="1561.6" width="8" height="12" fill="#c7932b"/><text x="193" y="1571.6" font-size="11" font-family="Helvetica" fill="#202124">SCIAN3 221</text><line x1="420" y1="1567.6" x2="420.0" y2="1567.6" stroke="#b9c2cc" stroke-width="1"/><circle cx="420.0" cy="1567.6" r="3.3" fill="#bb5a3c" fill-opacity="0.78" stroke="#ffffff" stroke-width="0.8"/><text x="428.3" y="1571.1" font-size="9" font-family="Helvetica" fill="#5f646d">R2=0.57</text><rect x="175" y="1583.4" width="8" height="12" fill="#c7932b"/><text x="193" y="1593.4" font-size="11" font-family="Helvetica" fill="#202124">SCIAN3 519</text><line x1="420" y1="1589.4" x2="420.0" y2="1589.4" stroke="#b9c2cc" stroke-width="1"/><circle cx="420.0" cy="1589.4" r="3.0" fill="#bb5a3c" fill-opacity="0.78" stroke="#ffffff" stroke-width="0.8"/><text x="428.0" y="1592.9" font-size="9" font-family="Helvetica" fill="#5f646d">R2=0.53</text><rect x="420" y="1600.4" width="910" height="21.9" fill="#eef3f8" fill-opacity="0.38"/><rect x="175" y="1605.3" width="8" height="12" fill="#c7932b"/><text x="193" y="1615.3" font-size="11" font-family="Helvetica" fill="#202124">SCIAN3 711</text><line x1="420" y1="1611.3" x2="420.0" y2="1611.3" stroke="#b9c2cc" stroke-width="1"/><circle cx="420.0" cy="1611.3" r="3.0" fill="#bb5a3c" fill-opacity="0.78" stroke="#ffffff" stroke-width="0.8"/><text x="428.0" y="1614.8" font-size="9" font-family="Helvetica" fill="#5f646d">R2=0.51</text><rect x="175" y="1627.1" width="8" height="12" fill="#c7932b"/><text x="193" y="1637.1" font-size="11" font-family="Helvetica" fill="#202124">SCIAN3 623</text><line x1="420" y1="1633.1" x2="420.0" y2="1633.1" stroke="#b9c2cc" stroke-width="1"/><circle cx="420.0" cy="1633.1" r="3.0" fill="#bb5a3c" fill-opacity="0.78" stroke="#ffffff" stroke-width="0.8"/><text x="428.0" y="1636.6" font-size="9" font-family="Helvetica" fill="#5f646d">R2=0.51</text><rect x="420" y="1644.1" width="910" height="21.9" fill="#eef3f8" fill-opacity="0.38"/><rect x="175" y="1649.0" width="8" height="12" fill="#c7932b"/><text x="193" y="1659.0" font-size="11" font-family="Helvetica" fill="#202124">SCIAN3 721</text><line x1="420" y1="1655.0" x2="608.6" y2="1655.0" stroke="#b9c2cc" stroke-width="1"/><circle cx="608.6" cy="1655.0" r="3.0" fill="#bb5a3c" fill-opacity="0.78" stroke="#ffffff" stroke-width="0.8"/><text x="616.6" y="1658.5" font-size="9" font-family="Helvetica" fill="#5f646d">R2=0.51</text><rect x="1155" y="55" width="230" height="110" rx="6" fill="#fff8ed" stroke="#e4c99c"/><text x="1171" y="79" font-size="13" font-family="Helvetica" font-weight="700" fill="#202124">R2 classes</text><circle cx="1177" cy="100" r="5" fill="#4f8a46" fill-opacity="0.78"/><text x="1191" y="104" font-size="11" font-family="Helvetica" fill="#202124">&gt;= 0.82</text><circle cx="1177" cy="116" r="5" fill="#1b8a7a" fill-opacity="0.78"/><text x="1191" y="120" font-size="11" font-family="Helvetica" fill="#202124">0.75-0.82</text><circle cx="1177" cy="132" r="5" fill="#c7932b" fill-opacity="0.78"/><text x="1191" y="136" font-size="11" font-family="Helvetica" fill="#202124">0.68-0.75</text><circle cx="1177" cy="148" r="5" fill="#bb5a3c" fill-opacity="0.78"/><text x="1191" y="152" font-size="11" font-family="Helvetica" fill="#202124">&lt; 0.68</text><text x="875.0" y="1716" text-anchor="middle" font-size="15" font-family="Helvetica" fill="#202124">scaling exponent beta in log Y_i = alpha_Y + beta_Y log N_i + epsilon_i</text><text x="58" y="1716" font-size="12" font-family="Helvetica" fill="#5f646d">Rows grouped by Y family; only retained outcomes are shown.</text></svg>
