<svg xmlns="http://www.w3.org/2000/svg" width="1200" height="760" viewBox="0 0 1200 760" role="img"><rect width="1200" height="760" fill="#fbfaf7"/><rect x="18" y="18" width="1164" height="724" rx="8" fill="#ffffff" stroke="#d9d2c4"/><text x="48" y="54" font-size="26" font-family="Georgia, Times, serif" fill="#202124">Phase I: one Y became a catalog</text><text x="48" y="80" font-size="14" font-family="Helvetica, Arial, sans-serif" fill="#5f646d">Bars show how many outcome definitions were tested and how many were retained as interpretable.</text><rect x="110" y="130" width="1010" height="500" fill="#fbfdff" stroke="#8c939b"/><rect x="154.4" y="624.5" width="113.1" height="5.5" fill="#d9e1ea"/><rect x="154.4" y="624.5" width="113.1" height="5.5" fill="#2c6fbb"/><text x="211.0" y="616.5" text-anchor="middle" font-size="13" font-family="Helvetica" fill="#202124">1/1</text><text x="211.0" y="658" text-anchor="middle" font-size="12" font-family="Helvetica" fill="#202124">Total</text><text x="211.0" y="678" text-anchor="middle" font-size="11" font-family="Helvetica" fill="#5f646d">median beta 0.95</text><text x="211.0" y="695" text-anchor="middle" font-size="11" font-family="Helvetica" fill="#5f646d">median R² 0.85</text><rect x="356.4" y="591.5" width="113.1" height="38.5" fill="#d9e1ea"/><rect x="356.4" y="591.5" width="113.1" height="38.5" fill="#2c6fbb"/><text x="413.0" y="583.5" text-anchor="middle" font-size="13" font-family="Helvetica" fill="#202124">7/7</text><text x="413.0" y="658" text-anchor="middle" font-size="12" font-family="Helvetica" fill="#202124">size band</text><text x="413.0" y="678" text-anchor="middle" font-size="11" font-family="Helvetica" fill="#5f646d">median beta 0.97</text><text x="413.0" y="695" text-anchor="middle" font-size="11" font-family="Helvetica" fill="#5f646d">median R² 0.76</text><rect x="558.4" y="608.0" width="113.1" height="22.0" fill="#d9e1ea"/><rect x="558.4" y="608.0" width="113.1" height="22.0" fill="#2c6fbb"/><text x="615.0" y="600.0" text-anchor="middle" font-size="13" font-family="Helvetica" fill="#202124">4/4</text><text x="615.0" y="658" text-anchor="middle" font-size="12" font-family="Helvetica" fill="#202124">Derived size class</text><text x="615.0" y="678" text-anchor="middle" font-size="11" font-family="Helvetica" fill="#5f646d">median beta 0.97</text><text x="615.0" y="695" text-anchor="middle" font-size="11" font-family="Helvetica" fill="#5f646d">median R² 0.78</text><rect x="760.4" y="503.6" width="113.1" height="126.4" fill="#d9e1ea"/><rect x="760.4" y="520.1" width="113.1" height="109.9" fill="#2c6fbb"/><text x="817.0" y="512.1" text-anchor="middle" font-size="13" font-family="Helvetica" fill="#202124">20/23</text><text x="817.0" y="658" text-anchor="middle" font-size="12" font-family="Helvetica" fill="#202124">SCIAN 2-digit</text><text x="817.0" y="678" text-anchor="middle" font-size="11" font-family="Helvetica" fill="#5f646d">median beta 0.93</text><text x="817.0" y="695" text-anchor="middle" font-size="11" font-family="Helvetica" fill="#5f646d">median R² 0.74</text><rect x="962.4" y="130.0" width="113.1" height="500.0" fill="#d9e1ea"/><rect x="962.4" y="415.7" width="113.1" height="214.3" fill="#2c6fbb"/><text x="1019.0" y="407.7" text-anchor="middle" font-size="13" font-family="Helvetica" fill="#202124">39/91</text><text x="1019.0" y="658" text-anchor="middle" font-size="12" font-family="Helvetica" fill="#202124">SCIAN 3-digit</text><text x="1019.0" y="678" text-anchor="middle" font-size="11" font-family="Helvetica" fill="#5f646d">median beta 0.90</text><text x="1019.0" y="695" text-anchor="middle" font-size="11" font-family="Helvetica" fill="#5f646d">median R² 0.72</text><rect x="915" y="150" width="215" height="78" rx="6" fill="#fff8ed" stroke="#e4c99c"/><rect x="931" y="168" width="18" height="18" fill="#2c6fbb"/><text x="959" y="182" font-size="13" font-family="Helvetica" fill="#202124">retained</text><rect x="931" y="195" width="18" height="18" fill="#d9e1ea"/><text x="959" y="209" font-size="13" font-family="Helvetica" fill="#202124">tested but not retained</text><text x="34" y="380.0" text-anchor="middle" font-size="15" font-family="Helvetica" fill="#202124" transform="rotate(-90 34 380.0)">number of Y definitions</text></svg>
