<svg xmlns="http://www.w3.org/2000/svg" width="1200" height="800" viewBox="0 0 1200 800" role="img"><rect width="1200" height="800" fill="#fbfaf7"/><rect x="18" y="18" width="1164" height="764" rx="8" fill="#ffffff" stroke="#d9d2c4"/><text x="48" y="54" font-size="26" font-family="Georgia, Times, serif" fill="#202124">Phase I: retained outcomes have different exponents</text><text x="48" y="80" font-size="14" font-family="Helvetica, Arial, sans-serif" fill="#5f646d">Each point is one retained Y. The catalog is not one law repeated; it is a family of city laws.</text><rect x="105" y="120" width="1005" height="575" fill="#fbfdff" stroke="#8c939b"/><line x1="205.5" y1="120" x2="205.5" y2="695" stroke="#d7dce2"/><text x="205.5" y="723" text-anchor="middle" font-size="12" font-family="Helvetica" fill="#5f646d">0.50</text><line x1="456.8" y1="120" x2="456.8" y2="695" stroke="#d7dce2"/><text x="456.8" y="723" text-anchor="middle" font-size="12" font-family="Helvetica" fill="#5f646d">0.75</text><line x1="708.0" y1="120" x2="708.0" y2="695" stroke="#d7dce2"/><text x="708.0" y="723" text-anchor="middle" font-size="12" font-family="Helvetica" fill="#5f646d">1.00</text><line x1="959.3" y1="120" x2="959.3" y2="695" stroke="#d7dce2"/><text x="959.3" y="723" text-anchor="middle" font-size="12" font-family="Helvetica" fill="#5f646d">1.25</text><line x1="105" y1="631.1" x2="1110" y2="631.1" stroke="#d7dce2"/><text x="91" y="635.1" text-anchor="end" font-size="12" font-family="Helvetica" fill="#5f646d">0.5</text><line x1="105" y1="503.3" x2="1110" y2="503.3" stroke="#d7dce2"/><text x="91" y="507.3" text-anchor="end" font-size="12" font-family="Helvetica" fill="#5f646d">0.6</text><line x1="105" y1="375.6" x2="1110" y2="375.6" stroke="#d7dce2"/><text x="91" y="379.6" text-anchor="end" font-size="12" font-family="Helvetica" fill="#5f646d">0.7</text><line x1="105" y1="247.8" x2="1110" y2="247.8" stroke="#d7dce2"/><text x="91" y="251.8" text-anchor="end" font-size="12" font-family="Helvetica" fill="#5f646d">0.8</text><line x1="105" y1="120.0" x2="1110" y2="120.0" stroke="#d7dce2"/><text x="91" y="124.0" text-anchor="end" font-size="12" font-family="Helvetica" fill="#5f646d">0.9</text><line x1="708.0" y1="120" x2="708.0" y2="695" stroke="#bb5a3c" stroke-width="2" stroke-dasharray="6 5"/><text x="716.0" y="142" font-size="12" font-family="Helvetica" fill="#bb5a3c">linear beta = 1</text><circle cx="657.3" cy="189.0" r="5.0" fill="#202124" fill-opacity="0.72"/><circle cx="652.0" cy="197.0" r="3.6" fill="#2c6fbb" fill-opacity="0.72"/><circle cx="691.4" cy="232.9" r="3.6" fill="#2c6fbb" fill-opacity="0.72"/><circle cx="699.0" cy="240.8" r="3.6" fill="#2c6fbb" fill-opacity="0.72"/><circle cx="677.3" cy="302.7" r="3.6" fill="#2c6fbb" fill-opacity="0.72"/><circle cx="695.9" cy="344.0" r="3.6" fill="#2c6fbb" fill-opacity="0.72"/><circle cx="660.4" cy="390.7" r="3.6" fill="#2c6fbb" fill-opacity="0.72"/><circle cx="638.7" cy="469.8" r="3.6" fill="#2c6fbb" fill-opacity="0.72"/><circle cx="653.6" cy="193.4" r="3.6" fill="#1b8a7a" fill-opacity="0.72"/><circle cx="712.0" cy="225.1" r="3.6" fill="#1b8a7a" fill-opacity="0.72"/><circle cx="765.8" cy="330.5" r="3.6" fill="#1b8a7a" fill-opacity="0.72"/><circle cx="638.7" cy="469.8" r="3.6" fill="#1b8a7a" fill-opacity="0.72"/><circle cx="709.7" cy="154.3" r="3.6" fill="#bb5a3c" fill-opacity="0.72"/><circle cx="753.7" cy="196.5" r="3.6" fill="#bb5a3c" fill-opacity="0.72"/><circle cx="789.8" cy="216.4" r="3.6" fill="#bb5a3c" fill-opacity="0.72"/><circle cx="490.2" cy="226.7" r="3.6" fill="#bb5a3c" fill-opacity="0.72"/><circle cx="669.6" cy="231.2" r="3.6" fill="#bb5a3c" fill-opacity="0.72"/><circle cx="648.0" cy="253.3" r="3.6" fill="#bb5a3c" fill-opacity="0.72"/><circle cx="782.4" cy="257.4" r="3.6" fill="#bb5a3c" fill-opacity="0.72"/><circle cx="771.8" cy="296.8" r="3.6" fill="#bb5a3c" fill-opacity="0.72"/><circle cx="882.8" cy="310.7" r="3.6" fill="#bb5a3c" fill-opacity="0.72"/><circle cx="626.6" cy="323.8" r="3.6" fill="#bb5a3c" fill-opacity="0.72"/><circle cx="592.7" cy="333.6" r="3.6" fill="#bb5a3c" fill-opacity="0.72"/><circle cx="719.5" cy="336.7" r="3.6" fill="#bb5a3c" fill-opacity="0.72"/><circle cx="375.1" cy="370.9" r="3.6" fill="#bb5a3c" fill-opacity="0.72"/><circle cx="418.4" cy="376.7" r="3.6" fill="#bb5a3c" fill-opacity="0.72"/><circle cx="773.9" cy="408.8" r="3.6" fill="#bb5a3c" fill-opacity="0.72"/><circle cx="602.2" cy="411.1" r="3.6" fill="#bb5a3c" fill-opacity="0.72"/><circle cx="632.5" cy="451.4" r="3.6" fill="#bb5a3c" fill-opacity="0.72"/><circle cx="396.5" cy="525.9" r="3.6" fill="#bb5a3c" fill-opacity="0.72"/><circle cx="155.6" cy="545.6" r="3.6" fill="#bb5a3c" fill-opacity="0.72"/><circle cx="482.5" cy="556.6" r="3.6" fill="#bb5a3c" fill-opacity="0.72"/><circle cx="609.8" cy="187.1" r="3.6" fill="#c7932b" fill-opacity="0.72"/><circle cx="715.5" cy="208.8" r="3.6" fill="#c7932b" fill-opacity="0.72"/><circle cx="794.7" cy="217.2" r="3.6" fill="#c7932b" fill-opacity="0.72"/><circle cx="793.2" cy="218.0" r="3.6" fill="#c7932b" fill-opacity="0.72"/><circle cx="796.6" cy="222.3" r="3.6" fill="#c7932b" fill-opacity="0.72"/><circle cx="490.2" cy="226.7" r="3.6" fill="#c7932b" fill-opacity="0.72"/><circle cx="744.0" cy="240.9" r="3.6" fill="#c7932b" fill-opacity="0.72"/><circle cx="746.6" cy="248.1" r="3.6" fill="#c7932b" fill-opacity="0.72"/><circle cx="644.2" cy="255.4" r="3.6" fill="#c7932b" fill-opacity="0.72"/><circle cx="810.8" cy="256.9" r="3.6" fill="#c7932b" fill-opacity="0.72"/><circle cx="882.7" cy="257.2" r="3.6" fill="#c7932b" fill-opacity="0.72"/><circle cx="749.7" cy="258.9" r="3.6" fill="#c7932b" fill-opacity="0.72"/><circle cx="831.4" cy="266.8" r="3.6" fill="#c7932b" fill-opacity="0.72"/><circle cx="701.6" cy="280.1" r="3.6" fill="#c7932b" fill-opacity="0.72"/><circle cx="587.6" cy="297.9" r="3.6" fill="#c7932b" fill-opacity="0.72"/><circle cx="751.0" cy="297.9" r="3.6" fill="#c7932b" fill-opacity="0.72"/><circle cx="882.8" cy="310.7" r="3.6" fill="#c7932b" fill-opacity="0.72"/><circle cx="472.0" cy="318.0" r="3.6" fill="#c7932b" fill-opacity="0.72"/><circle cx="653.6" cy="323.6" r="3.6" fill="#c7932b" fill-opacity="0.72"/><circle cx="737.5" cy="353.9" r="3.6" fill="#c7932b" fill-opacity="0.72"/><circle cx="672.8" cy="362.5" r="3.6" fill="#c7932b" fill-opacity="0.72"/><circle cx="418.3" cy="376.7" r="3.6" fill="#c7932b" fill-opacity="0.72"/><circle cx="439.2" cy="380.2" r="3.6" fill="#c7932b" fill-opacity="0.72"/><circle cx="720.7" cy="381.0" r="3.6" fill="#c7932b" fill-opacity="0.72"/><circle cx="541.3" cy="384.1" r="3.6" fill="#c7932b" fill-opacity="0.72"/><circle cx="824.6" cy="388.7" r="3.6" fill="#c7932b" fill-opacity="0.72"/><circle cx="544.0" cy="400.2" r="3.6" fill="#c7932b" fill-opacity="0.72"/><circle cx="353.3" cy="414.0" r="3.6" fill="#c7932b" fill-opacity="0.72"/><circle cx="563.8" cy="443.9" r="3.6" fill="#c7932b" fill-opacity="0.72"/><circle cx="381.1" cy="495.7" r="3.6" fill="#c7932b" fill-opacity="0.72"/><circle cx="423.9" cy="499.3" r="3.6" fill="#c7932b" fill-opacity="0.72"/><circle cx="201.3" cy="522.6" r="3.6" fill="#c7932b" fill-opacity="0.72"/><circle cx="442.8" cy="523.0" r="3.6" fill="#c7932b" fill-opacity="0.72"/><circle cx="436.2" cy="526.5" r="3.6" fill="#c7932b" fill-opacity="0.72"/><circle cx="155.6" cy="545.6" r="3.6" fill="#c7932b" fill-opacity="0.72"/><circle cx="201.5" cy="612.7" r="3.6" fill="#c7932b" fill-opacity="0.72"/><circle cx="137.3" cy="613.7" r="3.6" fill="#c7932b" fill-opacity="0.72"/><circle cx="401.6" cy="615.7" r="3.6" fill="#c7932b" fill-opacity="0.72"/><rect x="925" y="142" width="205" height="145" rx="6" fill="#fff8ed" stroke="#e4c99c"/><circle cx="943" cy="167.0" r="5" fill="#202124"/><text x="959" y="171.0" font-size="12" font-family="Helvetica" fill="#202124">total</text><circle cx="943" cy="190.0" r="5" fill="#2c6fbb"/><text x="959" y="194.0" font-size="12" font-family="Helvetica" fill="#202124">per_ocu</text><circle cx="943" cy="213.0" r="5" fill="#1b8a7a"/><text x="959" y="217.0" font-size="12" font-family="Helvetica" fill="#202124">size_class</text><circle cx="943" cy="236.0" r="5" fill="#bb5a3c"/><text x="959" y="240.0" font-size="12" font-family="Helvetica" fill="#202124">scian2</text><circle cx="943" cy="259.0" r="5" fill="#c7932b"/><text x="959" y="263.0" font-size="12" font-family="Helvetica" fill="#202124">scian3</text><text x="607.5" y="766" text-anchor="middle" font-size="15" font-family="Helvetica" fill="#202124">scaling exponent beta</text><text x="34" y="407.5" text-anchor="middle" font-size="15" font-family="Helvetica" fill="#202124" transform="rotate(-90 34 407.5)">R²</text></svg>
