<svg xmlns="http://www.w3.org/2000/svg" width="1200" height="700" viewBox="0 0 1200 700" role="img"><rect width="1200" height="700" fill="#fbfaf7"/><rect x="18" y="18" width="1164" height="664" rx="8" fill="#ffffff" stroke="#d9d2c4"/><text x="48" y="54" font-size="26" font-family="Georgia, Times, serif" fill="#202124">Phase I: residuals become SAMI</text><text x="48" y="80" font-size="14" font-family="Helvetica, Arial, sans-serif" fill="#5f646d">The fitted law creates a log residual for every city; that residual becomes the object studied later.</text><rect x="90" y="120" width="1040" height="490" fill="#fbfdff" stroke="#8c939b"/><line x1="194.0" y1="120" x2="194.0" y2="610" stroke="#d7dce2"/><text x="194.0" y="638" text-anchor="middle" font-size="12" font-family="Helvetica" fill="#5f646d">-2</text><line x1="402.0" y1="120" x2="402.0" y2="610" stroke="#d7dce2"/><text x="402.0" y="638" text-anchor="middle" font-size="12" font-family="Helvetica" fill="#5f646d">-1</text><line x1="610.0" y1="120" x2="610.0" y2="610" stroke="#d7dce2"/><text x="610.0" y="638" text-anchor="middle" font-size="12" font-family="Helvetica" fill="#5f646d">+0</text><line x1="818.0" y1="120" x2="818.0" y2="610" stroke="#d7dce2"/><text x="818.0" y="638" text-anchor="middle" font-size="12" font-family="Helvetica" fill="#5f646d">+1</text><line x1="1026.0" y1="120" x2="1026.0" y2="610" stroke="#d7dce2"/><text x="1026.0" y="638" text-anchor="middle" font-size="12" font-family="Helvetica" fill="#5f646d">+2</text><rect x="90.0" y="603.3" width="28.6" height="6.7" fill="#1b8a7a" fill-opacity="0.75"/><rect x="120.6" y="606.6" width="28.6" height="3.4" fill="#1b8a7a" fill-opacity="0.75"/><rect x="151.2" y="603.3" width="28.6" height="6.7" fill="#1b8a7a" fill-opacity="0.75"/><rect x="181.8" y="601.6" width="28.6" height="8.4" fill="#1b8a7a" fill-opacity="0.75"/><rect x="212.4" y="593.2" width="28.6" height="16.8" fill="#1b8a7a" fill-opacity="0.75"/><rect x="242.9" y="584.7" width="28.6" height="25.3" fill="#1b8a7a" fill-opacity="0.75"/><rect x="273.5" y="576.3" width="28.6" height="33.7" fill="#1b8a7a" fill-opacity="0.75"/><rect x="304.1" y="566.2" width="28.6" height="43.8" fill="#1b8a7a" fill-opacity="0.75"/><rect x="334.7" y="529.2" width="28.6" height="80.8" fill="#1b8a7a" fill-opacity="0.75"/><rect x="365.3" y="535.9" width="28.6" height="74.1" fill="#1b8a7a" fill-opacity="0.75"/><rect x="395.9" y="505.6" width="28.6" height="104.4" fill="#1b8a7a" fill-opacity="0.75"/><rect x="426.5" y="488.8" width="28.6" height="121.2" fill="#1b8a7a" fill-opacity="0.75"/><rect x="457.1" y="466.9" width="28.6" height="143.1" fill="#1b8a7a" fill-opacity="0.75"/><rect x="487.6" y="411.3" width="28.6" height="198.7" fill="#1b8a7a" fill-opacity="0.75"/><rect x="518.2" y="369.2" width="28.6" height="240.8" fill="#1b8a7a" fill-opacity="0.75"/><rect x="548.8" y="298.5" width="28.6" height="311.5" fill="#1b8a7a" fill-opacity="0.75"/><rect x="579.4" y="216.0" width="28.6" height="394.0" fill="#1b8a7a" fill-opacity="0.75"/><rect x="610.0" y="153.7" width="28.6" height="456.3" fill="#1b8a7a" fill-opacity="0.75"/><rect x="640.6" y="120.0" width="28.6" height="490.0" fill="#1b8a7a" fill-opacity="0.75"/><rect x="671.2" y="150.3" width="28.6" height="459.7" fill="#1b8a7a" fill-opacity="0.75"/><rect x="701.8" y="266.5" width="28.6" height="343.5" fill="#1b8a7a" fill-opacity="0.75"/><rect x="732.4" y="372.6" width="28.6" height="237.4" fill="#1b8a7a" fill-opacity="0.75"/><rect x="762.9" y="461.8" width="28.6" height="148.2" fill="#1b8a7a" fill-opacity="0.75"/><rect x="793.5" y="532.5" width="28.6" height="77.5" fill="#1b8a7a" fill-opacity="0.75"/><rect x="824.1" y="562.9" width="28.6" height="47.1" fill="#1b8a7a" fill-opacity="0.75"/><rect x="854.7" y="583.1" width="28.6" height="26.9" fill="#1b8a7a" fill-opacity="0.75"/><rect x="885.3" y="598.2" width="28.6" height="11.8" fill="#1b8a7a" fill-opacity="0.75"/><rect x="915.9" y="588.1" width="28.6" height="21.9" fill="#1b8a7a" fill-opacity="0.75"/><rect x="946.5" y="603.3" width="28.6" height="6.7" fill="#1b8a7a" fill-opacity="0.75"/><rect x="977.1" y="603.3" width="28.6" height="6.7" fill="#1b8a7a" fill-opacity="0.75"/><rect x="1007.6" y="603.3" width="28.6" height="6.7" fill="#1b8a7a" fill-opacity="0.75"/><rect x="1038.2" y="606.6" width="28.6" height="3.4" fill="#1b8a7a" fill-opacity="0.75"/><rect x="1068.8" y="610.0" width="28.6" height="0.0" fill="#1b8a7a" fill-opacity="0.75"/><rect x="1099.4" y="610.0" width="28.6" height="0.0" fill="#1b8a7a" fill-opacity="0.75"/><line x1="610.0" y1="120" x2="610.0" y2="610" stroke="#bb5a3c" stroke-width="3"/><text x="620.0" y="146" font-size="13" font-family="Helvetica" fill="#bb5a3c">expected by law</text><text x="610.0" y="666" text-anchor="middle" font-size="15" font-family="Helvetica" fill="#202124">epsilon = log(observed / expected)</text><text x="34" y="365.0" text-anchor="middle" font-size="15" font-family="Helvetica" fill="#202124" transform="rotate(-90 34 365.0)">number of cities</text></svg>
