<svg xmlns="http://www.w3.org/2000/svg" width="1600" height="1750" viewBox="0 0 1600 1750" role="img"><rect width="1600" height="1750" fill="#fbfaf7"/><rect x="18" y="18" width="1564" height="1714" rx="8" fill="#ffffff" stroke="#d9d2c4"/><text x="48" y="54" font-size="26" font-family="Georgia, Times, serif" fill="#202124">Phase I: each retained Y has its own beta and R2</text><text x="48" y="80" font-size="14" font-family="Helvetica, Arial, sans-serif" fill="#5f646d">Each row is one retained outcome. Arrows connect the outcome label Y to its beta; R2 is written as a second numeric axis.</text><rect x="345" y="125" width="1015" height="1530" fill="#fbfdff" stroke="#8c939b"/><text x="190" y="107" font-size="13" font-family="Helvetica" font-weight="700" fill="#202124">Y outcome</text><text x="1388" y="107" font-size="13" font-family="Helvetica" font-weight="700" fill="#202124">R2</text><line x1="1376" y1="125" x2="1376" y2="1655" stroke="#8c939b"/><line x1="417.5" y1="125" x2="417.5" y2="1655" stroke="#d7dce2" stroke-width="1.2"/><text x="417.5" y="1683" text-anchor="middle" font-size="12" font-family="Helvetica" fill="#5f646d">0.6</text><line x1="707.5" y1="125" x2="707.5" y2="1655" stroke="#d7dce2" stroke-width="1.2"/><text x="707.5" y="1683" text-anchor="middle" font-size="12" font-family="Helvetica" fill="#5f646d">0.8</text><line x1="997.5" y1="125" x2="997.5" y2="1655" stroke="#bb5a3c" stroke-width="1.2" stroke-dasharray="6 5"/><text x="997.5" y="1683" text-anchor="middle" font-size="12" font-family="Helvetica" fill="#5f646d">1.0</text><line x1="1287.5" y1="125" x2="1287.5" y2="1655" stroke="#d7dce2" stroke-width="1.2"/><text x="1287.5" y="1683" text-anchor="middle" font-size="12" font-family="Helvetica" fill="#5f646d">1.2</text><text x="1005.5" y="143" font-size="12" font-family="Helvetica" fill="#bb5a3c">linear beta = 1</text><rect x="345" y="114.1" width="1015" height="21.9" fill="#eef3f8" fill-opacity="0.38"/><text x="58" y="129.0" font-size="14" font-family="Helvetica" font-weight="700" fill="#202124">total</text><rect x="175" y="119.0" width="8" height="12" fill="#202124"/><text x="193" y="129.0" font-size="11" font-family="Helvetica" fill="#202124">all establishments</text><line x1="325" y1="125.0" x2="915.4" y2="125.0" stroke="#aeb8c2" stroke-width="1.1"/><path d="M 915.4 125.0 l -6 -4 l 0 8 z" fill="#aeb8c2"/><circle cx="924.4" cy="125.0" r="5.2" fill="#202124" fill-opacity="0.84" stroke="#ffffff" stroke-width="0.8"/><text x="932.4" y="120.0" font-size="9" font-family="Helvetica" fill="#202124">all establishments</text><text x="1391" y="128.5" font-size="10" font-family="Helvetica" fill="#202124">0.85</text><text x="58" y="150.9" font-size="14" font-family="Helvetica" font-weight="700" fill="#2c6fbb">per_ocu</text><rect x="175" y="140.9" width="8" height="12" fill="#2c6fbb"/><text x="193" y="150.9" font-size="11" font-family="Helvetica" fill="#202124">0 a 5 personas</text><line x1="325" y1="146.9" x2="907.8" y2="146.9" stroke="#aeb8c2" stroke-width="1.1"/><path d="M 907.8 146.9 l -6 -4 l 0 8 z" fill="#aeb8c2"/><circle cx="916.8" cy="146.9" r="5.2" fill="#2c6fbb" fill-opacity="0.84" stroke="#ffffff" stroke-width="0.8"/><text x="924.8" y="141.9" font-size="9" font-family="Helvetica" fill="#2c6fbb">0 a 5 personas</text><text x="1391" y="150.4" font-size="10" font-family="Helvetica" fill="#202124">0.84</text><rect x="345" y="157.8" width="1015" height="21.9" fill="#eef3f8" fill-opacity="0.38"/><rect x="175" y="162.7" width="8" height="12" fill="#2c6fbb"/><text x="193" y="172.7" font-size="11" font-family="Helvetica" fill="#202124">11 a 30 personas</text><line x1="325" y1="168.7" x2="964.5" y2="168.7" stroke="#aeb8c2" stroke-width="1.1"/><path d="M 964.5 168.7 l -6 -4 l 0 8 z" fill="#aeb8c2"/><circle cx="973.5" cy="168.7" r="5.2" fill="#2c6fbb" fill-opacity="0.84" stroke="#ffffff" stroke-width="0.8"/><text x="981.5" y="163.7" font-size="9" font-family="Helvetica" fill="#2c6fbb">11 a 30 personas</text><text x="1391" y="172.2" font-size="10" font-family="Helvetica" fill="#202124">0.81</text><rect x="175" y="184.6" width="8" height="12" fill="#2c6fbb"/><text x="193" y="194.6" font-size="11" font-family="Helvetica" fill="#202124">6 a 10 personas</text><line x1="325" y1="190.6" x2="975.5" y2="190.6" stroke="#aeb8c2" stroke-width="1.1"/><path d="M 975.5 190.6 l -6 -4 l 0 8 z" fill="#aeb8c2"/><circle cx="984.5" cy="190.6" r="5.2" fill="#2c6fbb" fill-opacity="0.84" stroke="#ffffff" stroke-width="0.8"/><text x="992.5" y="185.6" font-size="9" font-family="Helvetica" fill="#2c6fbb">6 a 10 personas</text><text x="1391" y="194.1" font-size="10" font-family="Helvetica" fill="#202124">0.81</text><rect x="345" y="201.5" width="1015" height="21.9" fill="#eef3f8" fill-opacity="0.38"/><rect x="175" y="206.4" width="8" height="12" fill="#2c6fbb"/><text x="193" y="216.4" font-size="11" font-family="Helvetica" fill="#202124">31 a 50 personas</text><line x1="325" y1="212.4" x2="944.2" y2="212.4" stroke="#aeb8c2" stroke-width="1.1"/><path d="M 944.2 212.4 l -6 -4 l 0 8 z" fill="#aeb8c2"/><circle cx="953.2" cy="212.4" r="5.2" fill="#2c6fbb" fill-opacity="0.84" stroke="#ffffff" stroke-width="0.8"/><text x="961.2" y="207.4" font-size="9" font-family="Helvetica" fill="#2c6fbb">31 a 50 personas</text><text x="1391" y="215.9" font-size="10" font-family="Helvetica" fill="#202124">0.76</text><rect x="175" y="228.3" width="8" height="12" fill="#2c6fbb"/><text x="193" y="238.3" font-size="11" font-family="Helvetica" fill="#202124">51 a 100 personas</text><line x1="325" y1="234.3" x2="971.1" y2="234.3" stroke="#aeb8c2" stroke-width="1.1"/><path d="M 971.1 234.3 l -6 -4 l 0 8 z" fill="#aeb8c2"/><circle cx="980.1" cy="234.3" r="5.2" fill="#2c6fbb" fill-opacity="0.84" stroke="#ffffff" stroke-width="0.8"/><text x="988.1" y="229.3" font-size="9" font-family="Helvetica" fill="#2c6fbb">51 a 100 personas</text><text x="1391" y="237.8" font-size="10" font-family="Helvetica" fill="#202124">0.72</text><rect x="345" y="245.2" width="1015" height="21.9" fill="#eef3f8" fill-opacity="0.38"/><rect x="175" y="250.1" width="8" height="12" fill="#2c6fbb"/><text x="193" y="260.1" font-size="11" font-family="Helvetica" fill="#202124">101 a 250 personas</text><line x1="325" y1="256.1" x2="919.9" y2="256.1" stroke="#aeb8c2" stroke-width="1.1"/><path d="M 919.9 256.1 l -6 -4 l 0 8 z" fill="#aeb8c2"/><circle cx="928.9" cy="256.1" r="5.2" fill="#2c6fbb" fill-opacity="0.84" stroke="#ffffff" stroke-width="0.8"/><text x="936.9" y="251.1" font-size="9" font-family="Helvetica" fill="#2c6fbb">101 a 250 personas</text><text x="1391" y="259.6" font-size="10" font-family="Helvetica" fill="#202124">0.69</text><rect x="175" y="272.0" width="8" height="12" fill="#2c6fbb"/><text x="193" y="282.0" font-size="11" font-family="Helvetica" fill="#202124">251 y más personas</text><line x1="325" y1="278.0" x2="888.5" y2="278.0" stroke="#aeb8c2" stroke-width="1.1"/><path d="M 888.5 278.0 l -6 -4 l 0 8 z" fill="#aeb8c2"/><circle cx="897.5" cy="278.0" r="5.2" fill="#2c6fbb" fill-opacity="0.84" stroke="#ffffff" stroke-width="0.8"/><text x="905.5" y="273.0" font-size="9" font-family="Helvetica" fill="#2c6fbb">251 y más personas</text><text x="1391" y="281.5" font-size="10" font-family="Helvetica" fill="#202124">0.63</text><rect x="345" y="288.9" width="1015" height="21.9" fill="#eef3f8" fill-opacity="0.38"/><text x="58" y="303.9" font-size="14" font-family="Helvetica" font-weight="700" fill="#1b8a7a">size_class</text><rect x="175" y="293.9" width="8" height="12" fill="#1b8a7a"/><text x="193" y="303.9" font-size="11" font-family="Helvetica" fill="#202124">micro</text><line x1="325" y1="299.9" x2="910.0" y2="299.9" stroke="#aeb8c2" stroke-width="1.1"/><path d="M 910.0 299.9 l -6 -4 l 0 8 z" fill="#aeb8c2"/><circle cx="919.0" cy="299.9" r="5.2" fill="#1b8a7a" fill-opacity="0.84" stroke="#ffffff" stroke-width="0.8"/><text x="927.0" y="294.9" font-size="9" font-family="Helvetica" fill="#1b8a7a">micro</text><text x="1391" y="303.4" font-size="10" font-family="Helvetica" fill="#202124">0.84</text><rect x="175" y="315.7" width="8" height="12" fill="#1b8a7a"/><text x="193" y="325.7" font-size="11" font-family="Helvetica" fill="#202124">small</text><line x1="325" y1="321.7" x2="994.3" y2="321.7" stroke="#aeb8c2" stroke-width="1.1"/><path d="M 994.3 321.7 l -6 -4 l 0 8 z" fill="#aeb8c2"/><circle cx="1003.3" cy="321.7" r="5.2" fill="#1b8a7a" fill-opacity="0.84" stroke="#ffffff" stroke-width="0.8"/><text x="1011.3" y="316.7" font-size="9" font-family="Helvetica" fill="#1b8a7a">small</text><text x="1391" y="325.2" font-size="10" font-family="Helvetica" fill="#202124">0.82</text><rect x="345" y="332.6" width="1015" height="21.9" fill="#eef3f8" fill-opacity="0.38"/><rect x="175" y="337.6" width="8" height="12" fill="#1b8a7a"/><text x="193" y="347.6" font-size="11" font-family="Helvetica" fill="#202124">medium</text><line x1="325" y1="343.6" x2="1071.9" y2="343.6" stroke="#aeb8c2" stroke-width="1.1"/><path d="M 1071.9 343.6 l -6 -4 l 0 8 z" fill="#aeb8c2"/><circle cx="1080.9" cy="343.6" r="5.2" fill="#1b8a7a" fill-opacity="0.84" stroke="#ffffff" stroke-width="0.8"/><text x="1088.9" y="338.6" font-size="9" font-family="Helvetica" fill="#1b8a7a">medium</text><text x="1391" y="347.1" font-size="10" font-family="Helvetica" fill="#202124">0.74</text><rect x="175" y="359.4" width="8" height="12" fill="#1b8a7a"/><text x="193" y="369.4" font-size="11" font-family="Helvetica" fill="#202124">large</text><line x1="325" y1="365.4" x2="888.5" y2="365.4" stroke="#aeb8c2" stroke-width="1.1"/><path d="M 888.5 365.4 l -6 -4 l 0 8 z" fill="#aeb8c2"/><circle cx="897.5" cy="365.4" r="5.2" fill="#1b8a7a" fill-opacity="0.84" stroke="#ffffff" stroke-width="0.8"/><text x="905.5" y="360.4" font-size="9" font-family="Helvetica" fill="#1b8a7a">large</text><text x="1391" y="368.9" font-size="10" font-family="Helvetica" fill="#202124">0.63</text><rect x="345" y="376.4" width="1015" height="21.9" fill="#eef3f8" fill-opacity="0.38"/><text x="58" y="391.3" font-size="14" font-family="Helvetica" font-weight="700" fill="#bb5a3c">scian2</text><rect x="175" y="381.3" width="8" height="12" fill="#bb5a3c"/><text x="193" y="391.3" font-size="11" font-family="Helvetica" fill="#202124">SCIAN2 46</text><line x1="325" y1="387.3" x2="991.0" y2="387.3" stroke="#aeb8c2" stroke-width="1.1"/><path d="M 991.0 387.3 l -6 -4 l 0 8 z" fill="#aeb8c2"/><circle cx="1000.0" cy="387.3" r="5.2" fill="#bb5a3c" fill-opacity="0.84" stroke="#ffffff" stroke-width="0.8"/><text x="1008.0" y="382.3" font-size="9" font-family="Helvetica" fill="#bb5a3c">SCIAN2 46</text><text x="1391" y="390.8" font-size="10" font-family="Helvetica" fill="#202124">0.87</text><rect x="175" y="403.1" width="8" height="12" fill="#bb5a3c"/><text x="193" y="413.1" font-size="11" font-family="Helvetica" fill="#202124">SCIAN2 81</text><line x1="325" y1="409.1" x2="1054.4" y2="409.1" stroke="#aeb8c2" stroke-width="1.1"/><path d="M 1054.4 409.1 l -6 -4 l 0 8 z" fill="#aeb8c2"/><circle cx="1063.4" cy="409.1" r="5.2" fill="#bb5a3c" fill-opacity="0.84" stroke="#ffffff" stroke-width="0.8"/><text x="1071.4" y="404.1" font-size="9" font-family="Helvetica" fill="#bb5a3c">SCIAN2 81</text><text x="1391" y="412.6" font-size="10" font-family="Helvetica" fill="#202124">0.84</text><rect x="345" y="420.1" width="1015" height="21.9" fill="#eef3f8" fill-opacity="0.38"/><rect x="175" y="425.0" width="8" height="12" fill="#bb5a3c"/><text x="193" y="435.0" font-size="11" font-family="Helvetica" fill="#202124">SCIAN2 72</text><line x1="325" y1="431.0" x2="1106.6" y2="431.0" stroke="#aeb8c2" stroke-width="1.1"/><path d="M 1106.6 431.0 l -6 -4 l 0 8 z" fill="#aeb8c2"/><circle cx="1115.6" cy="431.0" r="5.2" fill="#bb5a3c" fill-opacity="0.84" stroke="#ffffff" stroke-width="0.8"/><text x="1123.6" y="426.0" font-size="9" font-family="Helvetica" fill="#bb5a3c">SCIAN2 72</text><text x="1391" y="434.5" font-size="10" font-family="Helvetica" fill="#202124">0.82</text><rect x="175" y="446.9" width="8" height="12" fill="#bb5a3c"/><text x="193" y="456.9" font-size="11" font-family="Helvetica" fill="#202124">SCIAN2 61</text><line x1="325" y1="452.9" x2="674.3" y2="452.9" stroke="#aeb8c2" stroke-width="1.1"/><path d="M 674.3 452.9 l -6 -4 l 0 8 z" fill="#aeb8c2"/><circle cx="683.3" cy="452.9" r="5.2" fill="#bb5a3c" fill-opacity="0.84" stroke="#ffffff" stroke-width="0.8"/><text x="691.3" y="447.9" font-size="9" font-family="Helvetica" fill="#bb5a3c">SCIAN2 61</text><text x="1391" y="456.4" font-size="10" font-family="Helvetica" fill="#202124">0.82</text><rect x="345" y="463.8" width="1015" height="21.9" fill="#eef3f8" fill-opacity="0.38"/><rect x="175" y="468.7" width="8" height="12" fill="#bb5a3c"/><text x="193" y="478.7" font-size="11" font-family="Helvetica" fill="#202124">SCIAN2 62</text><line x1="325" y1="474.7" x2="933.1" y2="474.7" stroke="#aeb8c2" stroke-width="1.1"/><path d="M 933.1 474.7 l -6 -4 l 0 8 z" fill="#aeb8c2"/><circle cx="942.1" cy="474.7" r="5.2" fill="#bb5a3c" fill-opacity="0.84" stroke="#ffffff" stroke-width="0.8"/><text x="950.1" y="469.7" font-size="9" font-family="Helvetica" fill="#bb5a3c">SCIAN2 62</text><text x="1391" y="478.2" font-size="10" font-family="Helvetica" fill="#202124">0.81</text><rect x="175" y="490.6" width="8" height="12" fill="#bb5a3c"/><text x="193" y="500.6" font-size="11" font-family="Helvetica" fill="#202124">SCIAN2 56</text><line x1="325" y1="496.6" x2="901.9" y2="496.6" stroke="#aeb8c2" stroke-width="1.1"/><path d="M 901.9 496.6 l -6 -4 l 0 8 z" fill="#aeb8c2"/><circle cx="910.9" cy="496.6" r="5.2" fill="#bb5a3c" fill-opacity="0.84" stroke="#ffffff" stroke-width="0.8"/><text x="918.9" y="491.6" font-size="9" font-family="Helvetica" fill="#bb5a3c">SCIAN2 56</text><text x="1391" y="500.1" font-size="10" font-family="Helvetica" fill="#202124">0.80</text><rect x="345" y="507.5" width="1015" height="21.9" fill="#eef3f8" fill-opacity="0.38"/><rect x="175" y="512.4" width="8" height="12" fill="#bb5a3c"/><text x="193" y="522.4" font-size="11" font-family="Helvetica" fill="#202124">SCIAN2 43</text><line x1="325" y1="518.4" x2="1095.9" y2="518.4" stroke="#aeb8c2" stroke-width="1.1"/><path d="M 1095.9 518.4 l -6 -4 l 0 8 z" fill="#aeb8c2"/><circle cx="1104.9" cy="518.4" r="5.2" fill="#bb5a3c" fill-opacity="0.84" stroke="#ffffff" stroke-width="0.8"/><text x="1112.9" y="513.4" font-size="9" font-family="Helvetica" fill="#bb5a3c">SCIAN2 43</text><text x="1391" y="521.9" font-size="10" font-family="Helvetica" fill="#202124">0.79</text><rect x="175" y="534.3" width="8" height="12" fill="#bb5a3c"/><text x="193" y="544.3" font-size="11" font-family="Helvetica" fill="#202124">SCIAN2 52</text><line x1="325" y1="540.3" x2="1080.5" y2="540.3" stroke="#aeb8c2" stroke-width="1.1"/><path d="M 1080.5 540.3 l -6 -4 l 0 8 z" fill="#aeb8c2"/><circle cx="1089.5" cy="540.3" r="5.2" fill="#bb5a3c" fill-opacity="0.84" stroke="#ffffff" stroke-width="0.8"/><text x="1097.5" y="535.3" font-size="9" font-family="Helvetica" fill="#bb5a3c">SCIAN2 52</text><text x="1391" y="543.8" font-size="10" font-family="Helvetica" fill="#202124">0.76</text><rect x="345" y="551.2" width="1015" height="21.9" fill="#eef3f8" fill-opacity="0.38"/><rect x="175" y="556.1" width="8" height="12" fill="#bb5a3c"/><text x="193" y="566.1" font-size="11" font-family="Helvetica" fill="#202124">SCIAN2 54</text><line x1="325" y1="562.1" x2="1240.7" y2="562.1" stroke="#aeb8c2" stroke-width="1.1"/><path d="M 1240.7 562.1 l -6 -4 l 0 8 z" fill="#aeb8c2"/><circle cx="1249.7" cy="562.1" r="5.2" fill="#bb5a3c" fill-opacity="0.84" stroke="#ffffff" stroke-width="0.8"/><text x="1257.7" y="557.1" font-size="9" font-family="Helvetica" fill="#bb5a3c">SCIAN2 54</text><text x="1391" y="565.6" font-size="10" font-family="Helvetica" fill="#202124">0.75</text><rect x="175" y="578.0" width="8" height="12" fill="#bb5a3c"/><text x="193" y="588.0" font-size="11" font-family="Helvetica" fill="#202124">SCIAN2 33</text><line x1="325" y1="584.0" x2="871.0" y2="584.0" stroke="#aeb8c2" stroke-width="1.1"/><path d="M 871.0 584.0 l -6 -4 l 0 8 z" fill="#aeb8c2"/><circle cx="880.0" cy="584.0" r="5.2" fill="#bb5a3c" fill-opacity="0.84" stroke="#ffffff" stroke-width="0.8"/><text x="888.0" y="579.0" font-size="9" font-family="Helvetica" fill="#bb5a3c">SCIAN2 33</text><text x="1391" y="587.5" font-size="10" font-family="Helvetica" fill="#202124">0.74</text><rect x="345" y="594.9" width="1015" height="21.9" fill="#eef3f8" fill-opacity="0.38"/><rect x="175" y="599.9" width="8" height="12" fill="#bb5a3c"/><text x="193" y="609.9" font-size="11" font-family="Helvetica" fill="#202124">SCIAN2 71</text><line x1="325" y1="605.9" x2="822.1" y2="605.9" stroke="#aeb8c2" stroke-width="1.1"/><path d="M 822.1 605.9 l -6 -4 l 0 8 z" fill="#aeb8c2"/><circle cx="831.1" cy="605.9" r="5.2" fill="#bb5a3c" fill-opacity="0.84" stroke="#ffffff" stroke-width="0.8"/><text x="839.1" y="600.9" font-size="9" font-family="Helvetica" fill="#bb5a3c">SCIAN2 71</text><text x="1391" y="609.4" font-size="10" font-family="Helvetica" fill="#202124">0.73</text><rect x="175" y="621.7" width="8" height="12" fill="#bb5a3c"/><text x="193" y="631.7" font-size="11" font-family="Helvetica" fill="#202124">SCIAN2 53</text><line x1="325" y1="627.7" x2="1005.1" y2="627.7" stroke="#aeb8c2" stroke-width="1.1"/><path d="M 1005.1 627.7 l -6 -4 l 0 8 z" fill="#aeb8c2"/><circle cx="1014.1" cy="627.7" r="5.2" fill="#bb5a3c" fill-opacity="0.84" stroke="#ffffff" stroke-width="0.8"/><text x="1022.1" y="622.7" font-size="9" font-family="Helvetica" fill="#bb5a3c">SCIAN2 53</text><text x="1391" y="631.2" font-size="10" font-family="Helvetica" fill="#202124">0.73</text><rect x="345" y="638.6" width="1015" height="21.9" fill="#eef3f8" fill-opacity="0.38"/><rect x="175" y="643.6" width="8" height="12" fill="#bb5a3c"/><text x="193" y="653.6" font-size="11" font-family="Helvetica" fill="#202124">SCIAN2 51</text><line x1="325" y1="649.6" x2="508.2" y2="649.6" stroke="#aeb8c2" stroke-width="1.1"/><path d="M 508.2 649.6 l -6 -4 l 0 8 z" fill="#aeb8c2"/><circle cx="517.2" cy="649.6" r="5.2" fill="#bb5a3c" fill-opacity="0.84" stroke="#ffffff" stroke-width="0.8"/><text x="525.2" y="644.6" font-size="9" font-family="Helvetica" fill="#bb5a3c">SCIAN2 51</text><text x="1391" y="653.1" font-size="10" font-family="Helvetica" fill="#202124">0.70</text><rect x="175" y="665.4" width="8" height="12" fill="#bb5a3c"/><text x="193" y="675.4" font-size="11" font-family="Helvetica" fill="#202124">SCIAN2 93</text><line x1="325" y1="671.4" x2="570.6" y2="671.4" stroke="#aeb8c2" stroke-width="1.1"/><path d="M 570.6 671.4 l -6 -4 l 0 8 z" fill="#aeb8c2"/><circle cx="579.6" cy="671.4" r="5.2" fill="#bb5a3c" fill-opacity="0.84" stroke="#ffffff" stroke-width="0.8"/><text x="587.6" y="666.4" font-size="9" font-family="Helvetica" fill="#bb5a3c">SCIAN2 93</text><text x="1391" y="674.9" font-size="10" font-family="Helvetica" fill="#202124">0.70</text><rect x="345" y="682.4" width="1015" height="21.9" fill="#eef3f8" fill-opacity="0.38"/><rect x="175" y="687.3" width="8" height="12" fill="#bb5a3c"/><text x="193" y="697.3" font-size="11" font-family="Helvetica" fill="#202124">SCIAN2 23</text><line x1="325" y1="693.3" x2="1083.6" y2="693.3" stroke="#aeb8c2" stroke-width="1.1"/><path d="M 1083.6 693.3 l -6 -4 l 0 8 z" fill="#aeb8c2"/><circle cx="1092.6" cy="693.3" r="5.2" fill="#bb5a3c" fill-opacity="0.84" stroke="#ffffff" stroke-width="0.8"/><text x="1100.6" y="688.3" font-size="9" font-family="Helvetica" fill="#bb5a3c">SCIAN2 23</text><text x="1391" y="696.8" font-size="10" font-family="Helvetica" fill="#202124">0.67</text><rect x="175" y="709.1" width="8" height="12" fill="#bb5a3c"/><text x="193" y="719.1" font-size="11" font-family="Helvetica" fill="#202124">SCIAN2 48</text><line x1="325" y1="715.1" x2="835.9" y2="715.1" stroke="#aeb8c2" stroke-width="1.1"/><path d="M 835.9 715.1 l -6 -4 l 0 8 z" fill="#aeb8c2"/><circle cx="844.9" cy="715.1" r="5.2" fill="#bb5a3c" fill-opacity="0.84" stroke="#ffffff" stroke-width="0.8"/><text x="852.9" y="710.1" font-size="9" font-family="Helvetica" fill="#bb5a3c">SCIAN2 48</text><text x="1391" y="718.6" font-size="10" font-family="Helvetica" fill="#202124">0.67</text><rect x="345" y="726.1" width="1015" height="21.9" fill="#eef3f8" fill-opacity="0.38"/><rect x="175" y="731.0" width="8" height="12" fill="#bb5a3c"/><text x="193" y="741.0" font-size="11" font-family="Helvetica" fill="#202124">SCIAN2 32</text><line x1="325" y1="737.0" x2="879.5" y2="737.0" stroke="#aeb8c2" stroke-width="1.1"/><path d="M 879.5 737.0 l -6 -4 l 0 8 z" fill="#aeb8c2"/><circle cx="888.5" cy="737.0" r="5.2" fill="#bb5a3c" fill-opacity="0.84" stroke="#ffffff" stroke-width="0.8"/><text x="896.5" y="732.0" font-size="9" font-family="Helvetica" fill="#bb5a3c">SCIAN2 32</text><text x="1391" y="740.5" font-size="10" font-family="Helvetica" fill="#202124">0.64</text><rect x="175" y="752.9" width="8" height="12" fill="#bb5a3c"/><text x="193" y="762.9" font-size="11" font-family="Helvetica" fill="#202124">SCIAN2 49</text><line x1="325" y1="758.9" x2="539.1" y2="758.9" stroke="#aeb8c2" stroke-width="1.1"/><path d="M 539.1 758.9 l -6 -4 l 0 8 z" fill="#aeb8c2"/><circle cx="548.1" cy="758.9" r="5.2" fill="#bb5a3c" fill-opacity="0.84" stroke="#ffffff" stroke-width="0.8"/><text x="556.1" y="753.9" font-size="9" font-family="Helvetica" fill="#bb5a3c">SCIAN2 49</text><text x="1391" y="762.4" font-size="10" font-family="Helvetica" fill="#202124">0.58</text><rect x="345" y="769.8" width="1015" height="21.9" fill="#eef3f8" fill-opacity="0.38"/><rect x="175" y="774.7" width="8" height="12" fill="#bb5a3c"/><text x="193" y="784.7" font-size="11" font-family="Helvetica" fill="#202124">SCIAN2 22</text><line x1="325" y1="780.7" x2="336.0" y2="780.7" stroke="#aeb8c2" stroke-width="1.1"/><path d="M 336.0 780.7 l -6 -4 l 0 8 z" fill="#aeb8c2"/><circle cx="345.0" cy="780.7" r="5.2" fill="#bb5a3c" fill-opacity="0.84" stroke="#ffffff" stroke-width="0.8"/><text x="353.0" y="775.7" font-size="9" font-family="Helvetica" fill="#bb5a3c">SCIAN2 22</text><text x="1391" y="784.2" font-size="10" font-family="Helvetica" fill="#202124">0.57</text><rect x="175" y="796.6" width="8" height="12" fill="#bb5a3c"/><text x="193" y="806.6" font-size="11" font-family="Helvetica" fill="#202124">SCIAN2 31</text><line x1="325" y1="802.6" x2="663.1" y2="802.6" stroke="#aeb8c2" stroke-width="1.1"/><path d="M 663.1 802.6 l -6 -4 l 0 8 z" fill="#aeb8c2"/><circle cx="672.1" cy="802.6" r="5.2" fill="#bb5a3c" fill-opacity="0.84" stroke="#ffffff" stroke-width="0.8"/><text x="680.1" y="797.6" font-size="9" font-family="Helvetica" fill="#bb5a3c">SCIAN2 31</text><text x="1391" y="806.1" font-size="10" font-family="Helvetica" fill="#202124">0.56</text><rect x="345" y="813.5" width="1015" height="21.9" fill="#eef3f8" fill-opacity="0.38"/><text x="58" y="828.4" font-size="14" font-family="Helvetica" font-weight="700" fill="#c7932b">scian3</text><rect x="175" y="818.4" width="8" height="12" fill="#c7932b"/><text x="193" y="828.4" font-size="11" font-family="Helvetica" fill="#202124">SCIAN3 461</text><line x1="325" y1="824.4" x2="846.8" y2="824.4" stroke="#aeb8c2" stroke-width="1.1"/><path d="M 846.8 824.4 l -6 -4 l 0 8 z" fill="#aeb8c2"/><circle cx="855.8" cy="824.4" r="5.2" fill="#c7932b" fill-opacity="0.84" stroke="#ffffff" stroke-width="0.8"/><text x="863.8" y="819.4" font-size="9" font-family="Helvetica" fill="#c7932b">SCIAN3 461</text><text x="1391" y="827.9" font-size="10" font-family="Helvetica" fill="#202124">0.85</text><rect x="175" y="840.3" width="8" height="12" fill="#c7932b"/><text x="193" y="850.3" font-size="11" font-family="Helvetica" fill="#202124">SCIAN3 464</text><line x1="325" y1="846.3" x2="999.3" y2="846.3" stroke="#aeb8c2" stroke-width="1.1"/><path d="M 999.3 846.3 l -6 -4 l 0 8 z" fill="#aeb8c2"/><circle cx="1008.3" cy="846.3" r="5.2" fill="#c7932b" fill-opacity="0.84" stroke="#ffffff" stroke-width="0.8"/><text x="1016.3" y="841.3" font-size="9" font-family="Helvetica" fill="#c7932b">SCIAN3 464</text><text x="1391" y="849.8" font-size="10" font-family="Helvetica" fill="#202124">0.83</text><rect x="345" y="857.2" width="1015" height="21.9" fill="#eef3f8" fill-opacity="0.38"/><rect x="175" y="862.1" width="8" height="12" fill="#c7932b"/><text x="193" y="872.1" font-size="11" font-family="Helvetica" fill="#202124">SCIAN3 722</text><line x1="325" y1="868.1" x2="1113.6" y2="868.1" stroke="#aeb8c2" stroke-width="1.1"/><path d="M 1113.6 868.1 l -6 -4 l 0 8 z" fill="#aeb8c2"/><circle cx="1122.6" cy="868.1" r="5.2" fill="#c7932b" fill-opacity="0.84" stroke="#ffffff" stroke-width="0.8"/><text x="1130.6" y="863.1" font-size="9" font-family="Helvetica" fill="#c7932b">SCIAN3 722</text><text x="1391" y="871.6" font-size="10" font-family="Helvetica" fill="#202124">0.82</text><rect x="175" y="884.0" width="8" height="12" fill="#c7932b"/><text x="193" y="894.0" font-size="11" font-family="Helvetica" fill="#202124">SCIAN3 812</text><line x1="325" y1="890.0" x2="1111.4" y2="890.0" stroke="#aeb8c2" stroke-width="1.1"/><path d="M 1111.4 890.0 l -6 -4 l 0 8 z" fill="#aeb8c2"/><circle cx="1120.4" cy="890.0" r="5.2" fill="#c7932b" fill-opacity="0.84" stroke="#ffffff" stroke-width="0.8"/><text x="1128.4" y="885.0" font-size="9" font-family="Helvetica" fill="#c7932b">SCIAN3 812</text><text x="1391" y="893.5" font-size="10" font-family="Helvetica" fill="#202124">0.82</text><rect x="345" y="900.9" width="1015" height="21.9" fill="#eef3f8" fill-opacity="0.38"/><rect x="175" y="905.9" width="8" height="12" fill="#c7932b"/><text x="193" y="915.9" font-size="11" font-family="Helvetica" fill="#202124">SCIAN3 465</text><line x1="325" y1="911.9" x2="1116.4" y2="911.9" stroke="#aeb8c2" stroke-width="1.1"/><path d="M 1116.4 911.9 l -6 -4 l 0 8 z" fill="#aeb8c2"/><circle cx="1125.4" cy="911.9" r="5.2" fill="#c7932b" fill-opacity="0.84" stroke="#ffffff" stroke-width="0.8"/><text x="1133.4" y="906.9" font-size="9" font-family="Helvetica" fill="#c7932b">SCIAN3 465</text><text x="1391" y="915.4" font-size="10" font-family="Helvetica" fill="#202124">0.82</text><rect x="175" y="927.7" width="8" height="12" fill="#c7932b"/><text x="193" y="937.7" font-size="11" font-family="Helvetica" fill="#202124">SCIAN3 611</text><line x1="325" y1="933.7" x2="674.3" y2="933.7" stroke="#aeb8c2" stroke-width="1.1"/><path d="M 674.3 933.7 l -6 -4 l 0 8 z" fill="#aeb8c2"/><circle cx="683.3" cy="933.7" r="5.2" fill="#c7932b" fill-opacity="0.84" stroke="#ffffff" stroke-width="0.8"/><text x="691.3" y="928.7" font-size="9" font-family="Helvetica" fill="#c7932b">SCIAN3 611</text><text x="1391" y="937.2" font-size="10" font-family="Helvetica" fill="#202124">0.82</text><rect x="345" y="944.6" width="1015" height="21.9" fill="#eef3f8" fill-opacity="0.38"/><rect x="175" y="949.6" width="8" height="12" fill="#c7932b"/><text x="193" y="959.6" font-size="11" font-family="Helvetica" fill="#202124">SCIAN3 467</text><line x1="325" y1="955.6" x2="1040.4" y2="955.6" stroke="#aeb8c2" stroke-width="1.1"/><path d="M 1040.4 955.6 l -6 -4 l 0 8 z" fill="#aeb8c2"/><circle cx="1049.4" cy="955.6" r="5.2" fill="#c7932b" fill-opacity="0.84" stroke="#ffffff" stroke-width="0.8"/><text x="1057.4" y="950.6" font-size="9" font-family="Helvetica" fill="#c7932b">SCIAN3 467</text><text x="1391" y="959.1" font-size="10" font-family="Helvetica" fill="#202124">0.81</text><rect x="175" y="971.4" width="8" height="12" fill="#c7932b"/><text x="193" y="981.4" font-size="11" font-family="Helvetica" fill="#202124">SCIAN3 621</text><line x1="325" y1="977.4" x2="1044.1" y2="977.4" stroke="#aeb8c2" stroke-width="1.1"/><path d="M 1044.1 977.4 l -6 -4 l 0 8 z" fill="#aeb8c2"/><circle cx="1053.1" cy="977.4" r="5.2" fill="#c7932b" fill-opacity="0.84" stroke="#ffffff" stroke-width="0.8"/><text x="1061.1" y="972.4" font-size="9" font-family="Helvetica" fill="#c7932b">SCIAN3 621</text><text x="1391" y="980.9" font-size="10" font-family="Helvetica" fill="#202124">0.80</text><rect x="345" y="988.4" width="1015" height="21.9" fill="#eef3f8" fill-opacity="0.38"/><rect x="175" y="993.3" width="8" height="12" fill="#c7932b"/><text x="193" y="1003.3" font-size="11" font-family="Helvetica" fill="#202124">SCIAN3 561</text><line x1="325" y1="999.3" x2="896.5" y2="999.3" stroke="#aeb8c2" stroke-width="1.1"/><path d="M 896.5 999.3 l -6 -4 l 0 8 z" fill="#aeb8c2"/><circle cx="905.5" cy="999.3" r="5.2" fill="#c7932b" fill-opacity="0.84" stroke="#ffffff" stroke-width="0.8"/><text x="913.5" y="994.3" font-size="9" font-family="Helvetica" fill="#c7932b">SCIAN3 561</text><text x="1391" y="1002.8" font-size="10" font-family="Helvetica" fill="#202124">0.79</text><rect x="175" y="1015.1" width="8" height="12" fill="#c7932b"/><text x="193" y="1025.1" font-size="11" font-family="Helvetica" fill="#202124">SCIAN3 463</text><line x1="325" y1="1021.1" x2="1136.8" y2="1021.1" stroke="#aeb8c2" stroke-width="1.1"/><path d="M 1136.8 1021.1 l -6 -4 l 0 8 z" fill="#aeb8c2"/><circle cx="1145.8" cy="1021.1" r="5.2" fill="#c7932b" fill-opacity="0.84" stroke="#ffffff" stroke-width="0.8"/><text x="1153.8" y="1016.1" font-size="9" font-family="Helvetica" fill="#c7932b">SCIAN3 463</text><text x="1391" y="1024.6" font-size="10" font-family="Helvetica" fill="#202124">0.79</text><rect x="345" y="1032.1" width="1015" height="21.9" fill="#eef3f8" fill-opacity="0.38"/><rect x="175" y="1037.0" width="8" height="12" fill="#c7932b"/><text x="193" y="1047.0" font-size="11" font-family="Helvetica" fill="#202124">SCIAN3 811</text><line x1="325" y1="1043.0" x2="1240.6" y2="1043.0" stroke="#aeb8c2" stroke-width="1.1"/><path d="M 1240.6 1043.0 l -6 -4 l 0 8 z" fill="#aeb8c2"/><circle cx="1249.6" cy="1043.0" r="5.2" fill="#c7932b" fill-opacity="0.84" stroke="#ffffff" stroke-width="0.8"/><text x="1257.6" y="1038.0" font-size="9" font-family="Helvetica" fill="#c7932b">SCIAN3 811</text><text x="1391" y="1046.5" font-size="10" font-family="Helvetica" fill="#202124">0.79</text><rect x="175" y="1058.9" width="8" height="12" fill="#c7932b"/><text x="193" y="1068.9" font-size="11" font-family="Helvetica" fill="#202124">SCIAN3 468</text><line x1="325" y1="1064.9" x2="1048.7" y2="1064.9" stroke="#aeb8c2" stroke-width="1.1"/><path d="M 1048.7 1064.9 l -6 -4 l 0 8 z" fill="#aeb8c2"/><circle cx="1057.7" cy="1064.9" r="5.2" fill="#c7932b" fill-opacity="0.84" stroke="#ffffff" stroke-width="0.8"/><text x="1065.7" y="1059.9" font-size="9" font-family="Helvetica" fill="#c7932b">SCIAN3 468</text><text x="1391" y="1068.4" font-size="10" font-family="Helvetica" fill="#202124">0.79</text><rect x="345" y="1075.8" width="1015" height="21.9" fill="#eef3f8" fill-opacity="0.38"/><rect x="175" y="1080.7" width="8" height="12" fill="#c7932b"/><text x="193" y="1090.7" font-size="11" font-family="Helvetica" fill="#202124">SCIAN3 466</text><line x1="325" y1="1086.7" x2="1166.5" y2="1086.7" stroke="#aeb8c2" stroke-width="1.1"/><path d="M 1166.5 1086.7 l -6 -4 l 0 8 z" fill="#aeb8c2"/><circle cx="1175.5" cy="1086.7" r="5.2" fill="#c7932b" fill-opacity="0.84" stroke="#ffffff" stroke-width="0.8"/><text x="1183.5" y="1081.7" font-size="9" font-family="Helvetica" fill="#c7932b">SCIAN3 466</text><text x="1391" y="1090.2" font-size="10" font-family="Helvetica" fill="#202124">0.79</text><rect x="175" y="1102.6" width="8" height="12" fill="#c7932b"/><text x="193" y="1112.6" font-size="11" font-family="Helvetica" fill="#202124">SCIAN3 434</text><line x1="325" y1="1108.6" x2="979.3" y2="1108.6" stroke="#aeb8c2" stroke-width="1.1"/><path d="M 979.3 1108.6 l -6 -4 l 0 8 z" fill="#aeb8c2"/><circle cx="988.3" cy="1108.6" r="5.2" fill="#c7932b" fill-opacity="0.84" stroke="#ffffff" stroke-width="0.8"/><text x="996.3" y="1103.6" font-size="9" font-family="Helvetica" fill="#c7932b">SCIAN3 434</text><text x="1391" y="1112.1" font-size="10" font-family="Helvetica" fill="#202124">0.77</text><rect x="345" y="1119.5" width="1015" height="21.9" fill="#eef3f8" fill-opacity="0.38"/><rect x="175" y="1124.4" width="8" height="12" fill="#c7932b"/><text x="193" y="1134.4" font-size="11" font-family="Helvetica" fill="#202124">SCIAN3 332</text><line x1="325" y1="1130.4" x2="814.8" y2="1130.4" stroke="#aeb8c2" stroke-width="1.1"/><path d="M 814.8 1130.4 l -6 -4 l 0 8 z" fill="#aeb8c2"/><circle cx="823.8" cy="1130.4" r="5.2" fill="#c7932b" fill-opacity="0.84" stroke="#ffffff" stroke-width="0.8"/><text x="831.8" y="1125.4" font-size="9" font-family="Helvetica" fill="#c7932b">SCIAN3 332</text><text x="1391" y="1133.9" font-size="10" font-family="Helvetica" fill="#202124">0.76</text><rect x="175" y="1146.3" width="8" height="12" fill="#c7932b"/><text x="193" y="1156.3" font-size="11" font-family="Helvetica" fill="#202124">SCIAN3 522</text><line x1="325" y1="1152.3" x2="1050.6" y2="1152.3" stroke="#aeb8c2" stroke-width="1.1"/><path d="M 1050.6 1152.3 l -6 -4 l 0 8 z" fill="#aeb8c2"/><circle cx="1059.6" cy="1152.3" r="5.2" fill="#c7932b" fill-opacity="0.84" stroke="#ffffff" stroke-width="0.8"/><text x="1067.6" y="1147.3" font-size="9" font-family="Helvetica" fill="#c7932b">SCIAN3 522</text><text x="1391" y="1155.8" font-size="10" font-family="Helvetica" fill="#202124">0.76</text><rect x="345" y="1163.2" width="1015" height="21.9" fill="#eef3f8" fill-opacity="0.38"/><rect x="175" y="1168.1" width="8" height="12" fill="#c7932b"/><text x="193" y="1178.1" font-size="11" font-family="Helvetica" fill="#202124">SCIAN3 541</text><line x1="325" y1="1174.1" x2="1240.7" y2="1174.1" stroke="#aeb8c2" stroke-width="1.1"/><path d="M 1240.7 1174.1 l -6 -4 l 0 8 z" fill="#aeb8c2"/><circle cx="1249.7" cy="1174.1" r="5.2" fill="#c7932b" fill-opacity="0.84" stroke="#ffffff" stroke-width="0.8"/><text x="1257.7" y="1169.1" font-size="9" font-family="Helvetica" fill="#c7932b">SCIAN3 541</text><text x="1391" y="1177.6" font-size="10" font-family="Helvetica" fill="#202124">0.75</text><rect x="175" y="1190.0" width="8" height="12" fill="#c7932b"/><text x="193" y="1200.0" font-size="11" font-family="Helvetica" fill="#202124">SCIAN3 813</text><line x1="325" y1="1196.0" x2="648.0" y2="1196.0" stroke="#aeb8c2" stroke-width="1.1"/><path d="M 648.0 1196.0 l -6 -4 l 0 8 z" fill="#aeb8c2"/><circle cx="657.0" cy="1196.0" r="5.2" fill="#c7932b" fill-opacity="0.84" stroke="#ffffff" stroke-width="0.8"/><text x="665.0" y="1191.0" font-size="9" font-family="Helvetica" fill="#c7932b">SCIAN3 813</text><text x="1391" y="1199.5" font-size="10" font-family="Helvetica" fill="#202124">0.75</text><rect x="345" y="1206.9" width="1015" height="21.9" fill="#eef3f8" fill-opacity="0.38"/><rect x="175" y="1211.9" width="8" height="12" fill="#c7932b"/><text x="193" y="1221.9" font-size="11" font-family="Helvetica" fill="#202124">SCIAN3 713</text><line x1="325" y1="1217.9" x2="910.0" y2="1217.9" stroke="#aeb8c2" stroke-width="1.1"/><path d="M 910.0 1217.9 l -6 -4 l 0 8 z" fill="#aeb8c2"/><circle cx="919.0" cy="1217.9" r="5.2" fill="#c7932b" fill-opacity="0.84" stroke="#ffffff" stroke-width="0.8"/><text x="927.0" y="1212.9" font-size="9" font-family="Helvetica" fill="#c7932b">SCIAN3 713</text><text x="1391" y="1221.4" font-size="10" font-family="Helvetica" fill="#202124">0.74</text><rect x="175" y="1233.7" width="8" height="12" fill="#c7932b"/><text x="193" y="1243.7" font-size="11" font-family="Helvetica" fill="#202124">SCIAN3 323</text><line x1="325" y1="1239.7" x2="1031.0" y2="1239.7" stroke="#aeb8c2" stroke-width="1.1"/><path d="M 1031.0 1239.7 l -6 -4 l 0 8 z" fill="#aeb8c2"/><circle cx="1040.0" cy="1239.7" r="5.2" fill="#c7932b" fill-opacity="0.84" stroke="#ffffff" stroke-width="0.8"/><text x="1048.0" y="1234.7" font-size="9" font-family="Helvetica" fill="#c7932b">SCIAN3 323</text><text x="1391" y="1243.2" font-size="10" font-family="Helvetica" fill="#202124">0.72</text><rect x="345" y="1250.6" width="1015" height="21.9" fill="#eef3f8" fill-opacity="0.38"/><rect x="175" y="1255.6" width="8" height="12" fill="#c7932b"/><text x="193" y="1265.6" font-size="11" font-family="Helvetica" fill="#202124">SCIAN3 462</text><line x1="325" y1="1261.6" x2="937.7" y2="1261.6" stroke="#aeb8c2" stroke-width="1.1"/><path d="M 937.7 1261.6 l -6 -4 l 0 8 z" fill="#aeb8c2"/><circle cx="946.7" cy="1261.6" r="5.2" fill="#c7932b" fill-opacity="0.84" stroke="#ffffff" stroke-width="0.8"/><text x="954.7" y="1256.6" font-size="9" font-family="Helvetica" fill="#c7932b">SCIAN3 462</text><text x="1391" y="1265.1" font-size="10" font-family="Helvetica" fill="#202124">0.71</text><rect x="175" y="1277.4" width="8" height="12" fill="#c7932b"/><text x="193" y="1287.4" font-size="11" font-family="Helvetica" fill="#202124">SCIAN3 931</text><line x1="325" y1="1283.4" x2="570.5" y2="1283.4" stroke="#aeb8c2" stroke-width="1.1"/><path d="M 570.5 1283.4 l -6 -4 l 0 8 z" fill="#aeb8c2"/><circle cx="579.5" cy="1283.4" r="5.2" fill="#c7932b" fill-opacity="0.84" stroke="#ffffff" stroke-width="0.8"/><text x="587.5" y="1278.4" font-size="9" font-family="Helvetica" fill="#c7932b">SCIAN3 931</text><text x="1391" y="1286.9" font-size="10" font-family="Helvetica" fill="#202124">0.70</text><rect x="345" y="1294.4" width="1015" height="21.9" fill="#eef3f8" fill-opacity="0.38"/><rect x="175" y="1299.3" width="8" height="12" fill="#c7932b"/><text x="193" y="1309.3" font-size="11" font-family="Helvetica" fill="#202124">SCIAN3 624</text><line x1="325" y1="1305.3" x2="600.7" y2="1305.3" stroke="#aeb8c2" stroke-width="1.1"/><path d="M 600.7 1305.3 l -6 -4 l 0 8 z" fill="#aeb8c2"/><circle cx="609.7" cy="1305.3" r="5.2" fill="#c7932b" fill-opacity="0.84" stroke="#ffffff" stroke-width="0.8"/><text x="617.7" y="1300.3" font-size="9" font-family="Helvetica" fill="#c7932b">SCIAN3 624</text><text x="1391" y="1308.8" font-size="10" font-family="Helvetica" fill="#202124">0.70</text><rect x="175" y="1321.1" width="8" height="12" fill="#c7932b"/><text x="193" y="1331.1" font-size="11" font-family="Helvetica" fill="#202124">SCIAN3 531</text><line x1="325" y1="1327.1" x2="1006.8" y2="1327.1" stroke="#aeb8c2" stroke-width="1.1"/><path d="M 1006.8 1327.1 l -6 -4 l 0 8 z" fill="#aeb8c2"/><circle cx="1015.8" cy="1327.1" r="5.2" fill="#c7932b" fill-opacity="0.84" stroke="#ffffff" stroke-width="0.8"/><text x="1023.8" y="1322.1" font-size="9" font-family="Helvetica" fill="#c7932b">SCIAN3 531</text><text x="1391" y="1330.6" font-size="10" font-family="Helvetica" fill="#202124">0.70</text><rect x="345" y="1338.1" width="1015" height="21.9" fill="#eef3f8" fill-opacity="0.38"/><rect x="175" y="1343.0" width="8" height="12" fill="#c7932b"/><text x="193" y="1353.0" font-size="11" font-family="Helvetica" fill="#202124">SCIAN3 311</text><line x1="325" y1="1349.0" x2="748.0" y2="1349.0" stroke="#aeb8c2" stroke-width="1.1"/><path d="M 748.0 1349.0 l -6 -4 l 0 8 z" fill="#aeb8c2"/><circle cx="757.0" cy="1349.0" r="5.2" fill="#c7932b" fill-opacity="0.84" stroke="#ffffff" stroke-width="0.8"/><text x="765.0" y="1344.0" font-size="9" font-family="Helvetica" fill="#c7932b">SCIAN3 311</text><text x="1391" y="1352.5" font-size="10" font-family="Helvetica" fill="#202124">0.69</text><rect x="175" y="1364.9" width="8" height="12" fill="#c7932b"/><text x="193" y="1374.9" font-size="11" font-family="Helvetica" fill="#202124">SCIAN3 435</text><line x1="325" y1="1370.9" x2="1156.7" y2="1370.9" stroke="#aeb8c2" stroke-width="1.1"/><path d="M 1156.7 1370.9 l -6 -4 l 0 8 z" fill="#aeb8c2"/><circle cx="1165.7" cy="1370.9" r="5.2" fill="#c7932b" fill-opacity="0.84" stroke="#ffffff" stroke-width="0.8"/><text x="1173.7" y="1365.9" font-size="9" font-family="Helvetica" fill="#c7932b">SCIAN3 435</text><text x="1391" y="1374.4" font-size="10" font-family="Helvetica" fill="#202124">0.69</text><rect x="345" y="1381.8" width="1015" height="21.9" fill="#eef3f8" fill-opacity="0.38"/><rect x="175" y="1386.7" width="8" height="12" fill="#c7932b"/><text x="193" y="1396.7" font-size="11" font-family="Helvetica" fill="#202124">SCIAN3 532</text><line x1="325" y1="1392.7" x2="751.8" y2="1392.7" stroke="#aeb8c2" stroke-width="1.1"/><path d="M 751.8 1392.7 l -6 -4 l 0 8 z" fill="#aeb8c2"/><circle cx="760.8" cy="1392.7" r="5.2" fill="#c7932b" fill-opacity="0.84" stroke="#ffffff" stroke-width="0.8"/><text x="768.8" y="1387.7" font-size="9" font-family="Helvetica" fill="#c7932b">SCIAN3 532</text><text x="1391" y="1396.2" font-size="10" font-family="Helvetica" fill="#202124">0.68</text><rect x="175" y="1408.6" width="8" height="12" fill="#c7932b"/><text x="193" y="1418.6" font-size="11" font-family="Helvetica" fill="#202124">SCIAN3 517</text><line x1="325" y1="1414.6" x2="476.8" y2="1414.6" stroke="#aeb8c2" stroke-width="1.1"/><path d="M 476.8 1414.6 l -6 -4 l 0 8 z" fill="#aeb8c2"/><circle cx="485.8" cy="1414.6" r="5.2" fill="#c7932b" fill-opacity="0.84" stroke="#ffffff" stroke-width="0.8"/><text x="493.8" y="1409.6" font-size="9" font-family="Helvetica" fill="#c7932b">SCIAN3 517</text><text x="1391" y="1418.1" font-size="10" font-family="Helvetica" fill="#202124">0.67</text><rect x="345" y="1425.5" width="1015" height="21.9" fill="#eef3f8" fill-opacity="0.38"/><rect x="175" y="1430.4" width="8" height="12" fill="#c7932b"/><text x="193" y="1440.4" font-size="11" font-family="Helvetica" fill="#202124">SCIAN3 431</text><line x1="325" y1="1436.4" x2="780.5" y2="1436.4" stroke="#aeb8c2" stroke-width="1.1"/><path d="M 780.5 1436.4 l -6 -4 l 0 8 z" fill="#aeb8c2"/><circle cx="789.5" cy="1436.4" r="5.2" fill="#c7932b" fill-opacity="0.84" stroke="#ffffff" stroke-width="0.8"/><text x="797.5" y="1431.4" font-size="9" font-family="Helvetica" fill="#c7932b">SCIAN3 431</text><text x="1391" y="1439.9" font-size="10" font-family="Helvetica" fill="#202124">0.65</text><rect x="175" y="1452.3" width="8" height="12" fill="#c7932b"/><text x="193" y="1462.3" font-size="11" font-family="Helvetica" fill="#202124">SCIAN3 485</text><line x1="325" y1="1458.3" x2="516.9" y2="1458.3" stroke="#aeb8c2" stroke-width="1.1"/><path d="M 516.9 1458.3 l -6 -4 l 0 8 z" fill="#aeb8c2"/><circle cx="525.9" cy="1458.3" r="5.2" fill="#c7932b" fill-opacity="0.84" stroke="#ffffff" stroke-width="0.8"/><text x="533.9" y="1453.3" font-size="9" font-family="Helvetica" fill="#c7932b">SCIAN3 485</text><text x="1391" y="1461.8" font-size="10" font-family="Helvetica" fill="#202124">0.61</text><rect x="345" y="1469.2" width="1015" height="21.9" fill="#eef3f8" fill-opacity="0.38"/><rect x="175" y="1474.1" width="8" height="12" fill="#c7932b"/><text x="193" y="1484.1" font-size="11" font-family="Helvetica" fill="#202124">SCIAN3 312</text><line x1="325" y1="1480.1" x2="578.6" y2="1480.1" stroke="#aeb8c2" stroke-width="1.1"/><path d="M 578.6 1480.1 l -6 -4 l 0 8 z" fill="#aeb8c2"/><circle cx="587.6" cy="1480.1" r="5.2" fill="#c7932b" fill-opacity="0.84" stroke="#ffffff" stroke-width="0.8"/><text x="595.6" y="1475.1" font-size="9" font-family="Helvetica" fill="#c7932b">SCIAN3 312</text><text x="1391" y="1483.6" font-size="10" font-family="Helvetica" fill="#202124">0.60</text><rect x="175" y="1496.0" width="8" height="12" fill="#c7932b"/><text x="193" y="1506.0" font-size="11" font-family="Helvetica" fill="#202124">SCIAN3 622</text><line x1="325" y1="1502.0" x2="336.0" y2="1502.0" stroke="#aeb8c2" stroke-width="1.1"/><path d="M 336.0 1502.0 l -6 -4 l 0 8 z" fill="#aeb8c2"/><circle cx="345.0" cy="1502.0" r="5.2" fill="#c7932b" fill-opacity="0.84" stroke="#ffffff" stroke-width="0.8"/><text x="353.0" y="1497.0" font-size="9" font-family="Helvetica" fill="#c7932b">SCIAN3 622</text><text x="1391" y="1505.5" font-size="10" font-family="Helvetica" fill="#202124">0.58</text><rect x="345" y="1512.9" width="1015" height="21.9" fill="#eef3f8" fill-opacity="0.38"/><rect x="175" y="1517.9" width="8" height="12" fill="#c7932b"/><text x="193" y="1527.9" font-size="11" font-family="Helvetica" fill="#202124">SCIAN3 321</text><line x1="325" y1="1523.9" x2="605.9" y2="1523.9" stroke="#aeb8c2" stroke-width="1.1"/><path d="M 605.9 1523.9 l -6 -4 l 0 8 z" fill="#aeb8c2"/><circle cx="614.9" cy="1523.9" r="5.2" fill="#c7932b" fill-opacity="0.84" stroke="#ffffff" stroke-width="0.8"/><text x="622.9" y="1518.9" font-size="9" font-family="Helvetica" fill="#c7932b">SCIAN3 321</text><text x="1391" y="1527.4" font-size="10" font-family="Helvetica" fill="#202124">0.58</text><rect x="175" y="1539.7" width="8" height="12" fill="#c7932b"/><text x="193" y="1549.7" font-size="11" font-family="Helvetica" fill="#202124">SCIAN3 337</text><line x1="325" y1="1545.7" x2="596.4" y2="1545.7" stroke="#aeb8c2" stroke-width="1.1"/><path d="M 596.4 1545.7 l -6 -4 l 0 8 z" fill="#aeb8c2"/><circle cx="605.4" cy="1545.7" r="5.2" fill="#c7932b" fill-opacity="0.84" stroke="#ffffff" stroke-width="0.8"/><text x="613.4" y="1540.7" font-size="9" font-family="Helvetica" fill="#c7932b">SCIAN3 337</text><text x="1391" y="1549.2" font-size="10" font-family="Helvetica" fill="#202124">0.58</text><rect x="345" y="1556.6" width="1015" height="21.9" fill="#eef3f8" fill-opacity="0.38"/><rect x="175" y="1561.6" width="8" height="12" fill="#c7932b"/><text x="193" y="1571.6" font-size="11" font-family="Helvetica" fill="#202124">SCIAN3 221</text><line x1="325" y1="1567.6" x2="336.0" y2="1567.6" stroke="#aeb8c2" stroke-width="1.1"/><path d="M 336.0 1567.6 l -6 -4 l 0 8 z" fill="#aeb8c2"/><circle cx="345.0" cy="1567.6" r="5.2" fill="#c7932b" fill-opacity="0.84" stroke="#ffffff" stroke-width="0.8"/><text x="353.0" y="1562.6" font-size="9" font-family="Helvetica" fill="#c7932b">SCIAN3 221</text><text x="1391" y="1571.1" font-size="10" font-family="Helvetica" fill="#202124">0.57</text><rect x="175" y="1583.4" width="8" height="12" fill="#c7932b"/><text x="193" y="1593.4" font-size="11" font-family="Helvetica" fill="#202124">SCIAN3 519</text><line x1="325" y1="1589.4" x2="336.0" y2="1589.4" stroke="#aeb8c2" stroke-width="1.1"/><path d="M 336.0 1589.4 l -6 -4 l 0 8 z" fill="#aeb8c2"/><circle cx="345.0" cy="1589.4" r="5.2" fill="#c7932b" fill-opacity="0.84" stroke="#ffffff" stroke-width="0.8"/><text x="353.0" y="1584.4" font-size="9" font-family="Helvetica" fill="#c7932b">SCIAN3 519</text><text x="1391" y="1592.9" font-size="10" font-family="Helvetica" fill="#202124">0.53</text><rect x="345" y="1600.4" width="1015" height="21.9" fill="#eef3f8" fill-opacity="0.38"/><rect x="175" y="1605.3" width="8" height="12" fill="#c7932b"/><text x="193" y="1615.3" font-size="11" font-family="Helvetica" fill="#202124">SCIAN3 711</text><line x1="325" y1="1611.3" x2="336.0" y2="1611.3" stroke="#aeb8c2" stroke-width="1.1"/><path d="M 336.0 1611.3 l -6 -4 l 0 8 z" fill="#aeb8c2"/><circle cx="345.0" cy="1611.3" r="5.2" fill="#c7932b" fill-opacity="0.84" stroke="#ffffff" stroke-width="0.8"/><text x="353.0" y="1606.3" font-size="9" font-family="Helvetica" fill="#c7932b">SCIAN3 711</text><text x="1391" y="1614.8" font-size="10" font-family="Helvetica" fill="#202124">0.51</text><rect x="175" y="1627.1" width="8" height="12" fill="#c7932b"/><text x="193" y="1637.1" font-size="11" font-family="Helvetica" fill="#202124">SCIAN3 623</text><line x1="325" y1="1633.1" x2="336.0" y2="1633.1" stroke="#aeb8c2" stroke-width="1.1"/><path d="M 336.0 1633.1 l -6 -4 l 0 8 z" fill="#aeb8c2"/><circle cx="345.0" cy="1633.1" r="5.2" fill="#c7932b" fill-opacity="0.84" stroke="#ffffff" stroke-width="0.8"/><text x="353.0" y="1628.1" font-size="9" font-family="Helvetica" fill="#c7932b">SCIAN3 623</text><text x="1391" y="1636.6" font-size="10" font-family="Helvetica" fill="#202124">0.51</text><rect x="345" y="1644.1" width="1015" height="21.9" fill="#eef3f8" fill-opacity="0.38"/><rect x="175" y="1649.0" width="8" height="12" fill="#c7932b"/><text x="193" y="1659.0" font-size="11" font-family="Helvetica" fill="#202124">SCIAN3 721</text><line x1="325" y1="1655.0" x2="546.4" y2="1655.0" stroke="#aeb8c2" stroke-width="1.1"/><path d="M 546.4 1655.0 l -6 -4 l 0 8 z" fill="#aeb8c2"/><circle cx="555.4" cy="1655.0" r="5.2" fill="#c7932b" fill-opacity="0.84" stroke="#ffffff" stroke-width="0.8"/><text x="563.4" y="1650.0" font-size="9" font-family="Helvetica" fill="#c7932b">SCIAN3 721</text><text x="1391" y="1658.5" font-size="10" font-family="Helvetica" fill="#202124">0.51</text><text x="852.5" y="1716" text-anchor="middle" font-size="15" font-family="Helvetica" fill="#202124">scaling exponent beta in log Y_i = alpha_Y + beta_Y log N_i + epsilon_i</text><text x="58" y="1716" font-size="12" font-family="Helvetica" fill="#5f646d">Rows grouped by Y family; right column is the fitted R2 for the same Y.</text></svg>
